<?xml version="1.0" encoding="UTF-8"?>
<svg enable-background="new 0 0 992 439.9" version="1.1" viewBox="0 0 992 439.9" xml:space="preserve" xmlns="http://www.w3.org/2000/svg">
<style type="text/css">
	.st0{fill:#CE9B9B;}
	.st1{fill:#FFBD9C;}
	.st2{fill:#362349;}
	.st3{fill:#563B6B;}
	.st4{fill:#D89682;}
	.st5{fill:#262B40;}
	.st6{fill:#00053F;}
	.st7{opacity:0.8;}
	.st8{fill:#FFFFFF;}
	.st9{fill:#F8BD7A;}
	.st10{fill:#18214D;}
	.st11{fill:#FFF1E9;}
	.st12{fill:#7E2E3B;}
	.st13{opacity:0.35;}
	.st14{fill:#561A25;}
	.st15{fill:#F7F7F7;}
	.st16{opacity:0.24;}
	.st17{fill:#B7652E;}
	.st18{fill:#040055;}
	.st19{fill:#B56835;}
	.st20{fill:#422D51;}
	.st21{fill:#00B493;}
	.st22{fill:#009198;}
	.st23{fill:#FCA054;}
	.st24{fill:#9E6235;}
	.st25{fill:#0C0C0C;}
	.st26{fill:#C8BDD1;}
	.st27{fill:#B56326;}
	.st28{fill:#383838;}
	.st29{fill:#161616;}
	.st30{fill:#EE5050;}
	.st31{fill:#C48362;}
	.st32{fill:#2D2D2D;}
	.st33{fill:#694582;}
	.st34{fill:#191919;}
	.st35{fill:#663A3A;}
	.st36{fill:#3F2222;}
	.st37{fill:#111111;}
	.st38{fill:#432254;}
	.st39{fill:#1C1C1C;}
	.st40{fill:#D35050;}
</style>
								<path class="st0" d="m274 437.6h-204.1c-0.4 0-0.7 0.3-0.7 0.7s0.3 0.7 0.7 0.7h204.2v-0.2c0-0.3 0-0.8-0.1-1.2z"/>
							<path class="st1" d="m229 348.7c-0.3-0.2 9-6.3 0-7.9-8.1-1.5 8.2-33.5 8.2-33.5l-9-24s-14.9 42-21.3 55c-1.3 2.6 0.1 9.5 2.5 11.1 1.3 0.8 2.8 1.8 4.5 2.9 2.2-4.6 13 1.2 15.1-3.6z"/>
							<path class="st1" d="m221.8 333.1c-2.1 4.8-4.3 15.7-6.4 20.4 9.8 6.3 45.2 25.6 45.2 25.6l3.9-10.7c-0.1 0-26.4-33.8-42.7-35.3z"/>
						<path class="st1" d="m262.7 286.4-2.1 3.8-24.3 44.6-0.4 0.7-0.6 1s-2.5 20-4.6 28.2c-2.6 10.5-19.3 44.9-19.3 44.9l-7.6 20-8.9-8.7 32.4-137.1 0.8-2.6c0.1-0.1 34.9 4.3 34.6 5.2z"/>
						<rect class="st2" x="196.2" y="434.2" width="11.3" height="4.9"/>
									<path class="st3" d="m198.3 422.7c-3.9 1.8-7.6 3.9-11 6.4-3.2 2.4-7.9 5.2-12.4 5.4-9.2 0.3-9.9 4.5-5.8 4.7 3.2 0.2 9.9 0.5 18 0 7-0.5 14.1-1.8 17.8-2.1 1.5-0.1 2.5-0.7 2.9-3.1 0.6-3.8 0-7.3-2.1-9.7-1.8-2-4.7-2.7-7.2-1.6h-0.2z"/>
									<path class="st1" d="m205.7 424.7c-1.8 4.9-11.3 11-33.6 10 0 0 22-6.2 22.9-13.8 0.2-1.6 7.2 0.9 10.2 2 0.7 0.2 0.8 1 0.5 1.8z"/>
							<rect class="st2" transform="matrix(.9999 -.01003 .01003 .9999 -3.7178 2.7907)" x="273.9" y="366.4" width="4.9" height="11.3"/>
									<path class="st3" d="m262.5 375.8c1.8 3.9 3.9 7.6 6.5 10.9 2.4 3.2 5.3 7.9 5.5 12.3 0.4 9.2 4.6 9.9 4.7 5.8 0.1-3.2 0.4-9.9-0.2-18-0.5-7-1.9-14.1-2.3-17.8-0.1-1.5-0.7-2.5-3.2-2.9-3.8-0.6-7.3 0.1-9.6 2.2-2 1.8-2.6 4.8-1.5 7.2l0.1 0.3z"/>
									<path class="st1" d="m264.4 368.2c4.9 1.8 11.1 11.4 10.4 33.6 0 0-7.2-18.9-14.1-22.7-1.4-0.8 1.1-8.4 2.2-11.4 0.3-0.7 0.8 0.3 1.5 0.5z"/>
					<path class="st4" d="m211.5 351.1c-0.2-0.1-0.4-0.2-0.3-0.4l16.2-66.9c0-0.2 0.2-0.3 0.4-0.2 0.2 0 0.3 0.2 0.2 0.4l-16.2 66.9c0 0.1-0.1 0.2-0.3 0.2z"/>
							<path class="st5" d="m278 223.7c0.9 13.6-10.5 24.4-24.1 24.1-13.6-0.4-23.2-11.8-22.9-25.4 0.1-4 1.3-14.2 2.8-19.9 3.6-13.8 10.6-24.3 20.2-24.1 13.6 0.3 23.1 31 24 45.3z"/>
							<path class="st5" d="m277.9 228c-5.2 46.7-20.2 67.6-20.2 67.6l-31.1-5.4-0.4-0.1h-0.4v-0.6l0.1-1.6 5-65.5c0.1-0.1 48.3-6.4 47 5.6z"/>
						<path class="st6" d="m226.1 290.2v0c-0.3-0.1-0.4-0.2-0.3-0.4 0.1-0.3 7.2-27.6 8.4-36.3 0-0.2 0.2-0.3 0.4-0.3s0.3 0.2 0.3 0.4c-1.2 8.7-8.4 36.1-8.4 36.3-0.1 0.2-0.2 0.3-0.4 0.3z"/>
					<path class="st4" d="m219.4 334.5c-0.2 0-0.3-0.1-0.3-0.3s0.1-0.3 0.3-0.3c3.6 0 5.1-7.8 5.1-7.9 0-0.2 0.2-0.3 0.4-0.3s0.3 0.2 0.3 0.4c-0.1 0.4-1.6 8.4-5.8 8.4z"/>
					<path class="st6" d="m252.7 214.9c-0.5 0-1-0.1-1.4-0.4-0.6-0.4-1.1-1-1.3-1.7l-3.8-15c0-0.2 0.1-0.3 0.2-0.4l13.5-3.4h0.2c0.1 0 0.1 0.1 0.1 0.2l3.8 15c0.2 0.7 0.1 1.4-0.3 2.1-0.4 0.6-1 1.1-1.7 1.3l-0.1-0.3 0.1 0.3-8.8 2.2c-0.1 0-0.3 0.1-0.5 0.1zm-5.8-16.9 3.7 14.6c0.1 0.5 0.5 1 1 1.3s1 0.4 1.6 0.2l8.8-2.2c0.5-0.1 1-0.5 1.3-1s0.4-1 0.2-1.6l-3.7-14.6-12.9 3.3z"/>
					<path class="st6" d="m257.2 213.6c-1.2 0-2.3-0.8-2.7-2.1l-3.8-15v-0.2c0-0.1 0.1-0.1 0.2-0.1l13.5-3.4c0.2 0 0.3 0.1 0.4 0.2l3.8 15c0.4 1.5-0.5 3-2 3.3l-0.1-0.3 0.1 0.3-8.8 2.2c-0.2 0.1-0.4 0.1-0.6 0.1zm-5.8-16.8 3.7 14.6c0.3 1.1 1.4 1.8 2.5 1.5l8.8-2.2c0.5-0.1 1-0.5 1.3-1s0.4-1 0.2-1.6l-3.7-14.6-12.8 3.3z"/>
			<g class="st7">
								<rect class="st8" transform="matrix(.7151 -.699 .699 .7151 -119.85 155.37)" x="130" y="219.9" width="1.3" height="9.7"/>
								<rect class="st8" transform="matrix(.7244 -.6893 .6893 .7244 -118.87 151.93)" x="125.8" y="224" width="9.7" height="1.3"/>
			</g>
							<polygon class="st9" points="197.5 158.4 192.5 154.9 196.3 150.3 225.6 151.8 225.8 177.6"/>
						<path class="st1" d="m182.4 139.3s3.1 0.8 5.7 2.8c1.3 1 2.8 1.8 4.1 2.3 1.6 0.7 3 1.9 4 3.3l3.5 2.8s-1.6 7.1-2.2 7.9c-0.8 1-3.3-1-3.3-1l-5.4-2.1-5.5-13.9-0.9-2.1z"/>
							<path class="st10" d="m196 153.3-8.8 9.8s-14-14.3-18.1-18.4c-0.6-0.6-0.6-1.6 0.1-2.1l8.1-7.4c0.4-0.4 1.2-0.4 1.6 0l1 1 13.3 13.4 2.7 2.7c0.3 0.3 0.3 0.7 0.1 1z"/>
							<path class="st11" d="m194.9 151.3-7.8 8.7-15.8-15.5 8.7-8.2 13.3 13.4 1.6 1.6z"/>
						<path class="st10" d="m169.7 142.1 18.9 18.5-2.1 1.8-17.3-17.8c-0.6-0.6-0.6-1.6 0.1-2.1l0.4-0.4z"/>
											<path class="st12" d="m226.4 53.2c2.6 2.5 6 3.7 9.2 3.5 2.2-0.2 4.2-1 5.8-2.6 0.8-0.9 1.4-1.8 1.7-2.8 1.2-3.5-0.5-7.6-3.8-11.2-6.2-6.8-13.1-4.8-17.1-1.4-0.4 0.3-0.7 0.6-1 0.9-0.6 0.6-1 1.3-1.2 2.1-1.1 3.5 2.6 7.9 6.4 11.5z"/>
						<g class="st13">
											<path d="m219.9 41.6 1.5 2.8 14.1 12.3c2.2-0.2 4.2-1 5.8-2.6 0.8-0.9 1.4-1.8 1.7-2.8l-0.3-0.6c-4.6-8.6-14.9-11.2-20.6-12-0.4 0.3-0.7 0.6-1 0.9-0.6 0.6-1 1.3-1.2 2z"/>
						</g>
											<path class="st12" d="m204.9 70.3c5.2 10.6 15.5 16.6 24.5 14.7 1.3-0.3 2.6-0.7 3.9-1.3 5.9-2.9 9.4-9.1 9.9-16.3 0.3-4.6-0.6-9.6-2.9-14.4-5.9-12.2-18.7-16.6-28.6-12.1-18.9 8.6-12.8 17.2-6.8 29.4z"/>
						<g class="st13">
											<path d="m229.4 85c1.3-0.3 2.6-0.7 3.9-1.3 5.9-2.9 9.4-9.1 9.9-16.3-5 4.1-12.4 8.1-12.4 8.1s-1.1 7.4-1.4 9.5z"/>
						</g>
											<path class="st1" d="m225.4 115.5c-0.1 1.4 15.8-8.7 21.8-12.1 1-0.6 1.1-1.9 0.2-2.6-4.6-3.6-15.4-13.7-14.8-24.8 0.3-4.6-18.1 8.8-18.1 8.8 14.6 14.9 11.7 22.2 10.9 30.7z"/>
											<path class="st4" d="m220.9 92c0.3-0.2 7.7-5.9 7.2-3.9-0.4 1.6-6.1 5.9-6.1 5.9l-1.1-2z"/>
											<path class="st1" d="m202.1 76.9c1.5 3.1 3.9 6.6 6.1 9.6 0.6 0.8 1.2 1.6 1.8 2.4 2.6 3.3 4.7 5.7 4.7 5.7s12.2-3.7 15.8-8.6c3.2-4.4 7.8-10 1.2-23.6s-17.5-21.7-26.1-17.6c-8.5 4.1-10.1 18.5-3.5 32.1z"/>
											<path class="st1" d="m237.5 70.7c-0.8 4.4-3.5 7.7-5.9 7.2-2.4-0.4-3.7-4.4-2.9-8.8s3.5-7.7 5.9-7.2c2.4 0.4 3.7 4.3 2.9 8.8z"/>
											<path class="st1" d="m199.9 70.3s1.2 3.1 1.8 7.2c0.4 2.5-0.9 6.7 0.6 6.3l6.2-2.6-8.6-10.9z"/>
											<path class="st14" d="m209.1 74.4c0.8 0.7 1 1.7 0.5 2.2s-1.5 0.3-2.2-0.5c-0.8-0.7-1-1.7-0.5-2.2 0.4-0.4 1.4-0.2 2.2 0.5z"/>
											<path class="st12" d="m212.8 67.9c0.6-0.1-2.1-0.6-6.9 1.4-1.4 0.6-2.6 1.2-3.1 2-0.4 0.6 0.9 1.3 2.3 0.4 1.6-1.2 4.5-3.1 7.7-3.8z"/>
											<polygon class="st14" points="210.2 71.9 206 74 206.9 75.6 210.5 72.4"/>
											<path class="st12" d="m236.5 54.8c-1 5.8-5.3 9.9-11.1 11.1-7.8 1.6-23.8 1-27.4-5.5-1.5-2.8 0.9-10.2 3-12.5 3.3-3.7 7.3-5.3 7.3-5.3h14.3l11 7.7 2.9 4.5z"/>
											<path class="st15" d="m208.2 86.5c0.6 0.8 1.2 1.6 1.8 2.4 1.4-0.3 3.5-2.1 2.9-4.9-0.2-1.1-3.5 1.6-4.7 2.5z"/>
											<path class="st4" d="m235.6 67.5c0.1-0.1 0.2-0.2 0.2-0.3 0-1.2-0.3-2-1-2.4-0.9-0.6-1.9-0.1-2-0.1-0.2 0.1-0.3 0.3-0.2 0.4 0.1 0.2 0.3 0.3 0.4 0.2 0 0 0.8-0.3 1.3 0 0.4 0.3 0.6 0.9 0.7 1.8 0 0.2 0.2 0.3 0.3 0.3 0.2 0.2 0.3 0.1 0.3 0.1z"/>
											<path class="st4" d="m234.7 72.5c0.1-0.1 0.2-0.2 0.2-0.3 0-0.2-0.1-0.3-0.3-0.4-0.7 0-1.2-0.2-1.4-0.6-0.4-0.6 0-1.6 0.2-2 0.1-0.2 0-0.4-0.1-0.5-0.2-0.1-0.4 0-0.5 0.1 0 0.1-0.8 1.6-0.2 2.6 0.3 0.6 1 0.9 1.9 0.9 0.1 0.2 0.2 0.2 0.2 0.2z"/>
					<g class="st16">
								<path d="m225.2 59.4c-11.9 0.5-20.3-5.4-22.2-7.5-0.4-0.4-0.6-0.7-0.4-1 0.1-0.3 0.4-0.4 0.6-0.3s0.3 0.2 0.3 0.4c0.7 1.1 13.1 11 30.1 6 0.3-0.1 0.5 0.1 0.6 0.3 0.1 0.3-0.1 0.5-0.3 0.6-3.1 0.9-6 1.4-8.7 1.5z"/>
					</g>
						<path class="st17" d="m195.1 155.4c-2.2 1.2-3.9 3.2-4.8 5.5-1.5 3.6-3 8.2-0.3 7.3 9.2-3.2 7.7-14.3 7.4-14.1-0.8 0.4-1.5 0.9-2.3 1.3z"/>
							<path class="st9" d="m263 144.6c1.5 16.7-0.2 24.1 1.3 31.9 0.5 2.8 3.2 11.9 5.9 17.9 3.8 8.6-37.1 11-37.1 11l-0.9-18.8-11.8-22.2-0.5-1.6-1.7-5.7c-2-6.4-2.1-13.3-0.4-19.8 1.9-7.4 5.6-18.9 8.2-22.5 8.5-11.5 13.5-15.9 18.6-15.6 2.6 0.1 15.1 9 18.4 45.4z"/>
						<path class="st18" d="m255 124.7c-0.2 0-0.3-0.1-0.3-0.3-1.4-7.5-5.2-9.6-8.3-10-3.9-0.5-7.7 1.6-8.4 3.3-0.1 0.2-0.3 0.2-0.4 0.2-0.2-0.1-0.2-0.3-0.2-0.4 1-2.1 5.2-4.2 9.1-3.6 2.6 0.3 7.3 2.2 8.8 10.5 0 0.1-0.1 0.3-0.3 0.3z"/>
						<path class="st1" d="m199 160 0.8 5.6-5.9 2.5s-15.9-9.4-15.9-10.9v-0.3-0.2c0-0.2 0.1-0.3 0.1-0.5v-0.1c0.1-0.5 0.4-1 0.6-1.5l0.3-0.6c0.2-0.4 0.4-0.7 0.4-0.7 6.6-10.1 13.5 3.1 13.5 3.1l6.1 3.6z"/>
							<path class="st9" d="m249.6 156.4v0.2c-0.4 10.5-1.8 21.5-4.9 28.9-1.1 2.5-2.3 4.7-3.8 6.3-1.1 1.2-2.5 0.2-3.7 0.7-1.6 0.7-3.4 2.3-5.7 1.7-0.5-0.1-0.8 0.2-1.4 0-1.2-0.3-2.5-0.8-3.8-1.4-8-3.6-17.3-9.3-24.5-15.3-2.8-2.4-5.7-4.5-8-6.1-0.2-0.1-0.4-0.3-0.6-0.4-2.5-1.7-4.2-2.8-4.2-2.8s3.9-2.5 6-6c3.1-5.3 2.4-8.1 2.4-8.1l4.1 1.9 0.6 0.3 23.8 10.8s-2.1-37.1 4.1-44.7c3.2-3.8 12.3-5.4 16.6 3.5 1.3 2.6 2.4 9.3 2.8 17.5 0.3 3.9 0.3 8.4 0.2 13z"/>
						<path class="st18" d="m227.7 168.1h-0.1l-7.4-3.4c-0.2-0.1-0.2-0.3-0.2-0.4 0.1-0.2 0.3-0.2 0.4-0.2l7 3.3 5.2-31c0-0.2 0.2-0.3 0.4-0.3s0.3 0.2 0.3 0.4l-5.3 31.4c0 0.1-0.1 0.2-0.3 0.2 0.1 0 0.1 0 0 0z"/>
						<path class="st18" d="m233.2 194.9c-1 0-2.1-0.1-3.2-0.4-0.2 0-0.3-0.2-0.2-0.4 0-0.2 0.2-0.3 0.4-0.2 3.8 0.9 7.2 0.2 10.2-2.2 14.4-11.4 14.5-56.8 14.5-57.2 0-0.2 0.1-0.3 0.3-0.3s0.3 0.1 0.3 0.3c0 1.9-0.1 46.2-14.7 57.7-2.4 1.8-4.9 2.7-7.6 2.7z"/>
						<path class="st18" d="m230.7 150.1c-0.2 0-0.3-0.1-0.3-0.3 0.1-3.4-1.6-7.2-1.6-7.3-0.1-0.2 0-0.4 0.2-0.4 0.2-0.1 0.4 0 0.4 0.2 0.1 0.2 1.7 4 1.7 7.5-0.1 0.2-0.2 0.3-0.4 0.3z"/>
						<path class="st18" d="m233.1 171.8c-0.1 0-0.1 0-0.2-0.1-3.8-2.9-8-4.8-8-4.9-0.2-0.1-0.2-0.3-0.2-0.4 0.1-0.2 0.3-0.2 0.4-0.2 0 0 4.3 2 8.2 4.9 0.1 0.1 0.2 0.3 0.1 0.4-0.1 0.2-0.2 0.3-0.3 0.3z"/>
						<path class="st1" d="m173.3 148.9s-0.8 1.2-0.7 1.9c0.2 0.7 0.7 1.8 1.7 2.2 1.4 0.5 5.7 1.1 5.7 1.1l4-4.4-8.8 1.1-1.9-1.9z"/>
						<path class="st1" d="m187.1 147c-0.5-0.2-1.2-0.1-1.6 0.3-0.7 0.6-1.9 2.2-1.7 2.4 0.2 0.3 1.3-0.1 1.7 0l-0.5 2.1 4.6 1.5-0.8-4.2c-0.1-0.9-0.8-1.7-1.7-2.1z"/>
							<path class="st4" d="m182 155.7c-0.1 0.1-0.2 0.2-0.3 0.2s-0.1 0-0.1 0-1.8-0.8-2.9-1.3l0.3-0.6c1.1 0.5 2.8 1.3 2.8 1.3 0.2 0 0.2 0.2 0.2 0.4z"/>
							<path class="st4" d="m180.1 157.8c-0.1 0.1-0.2 0.2-0.3 0.2 0 0-0.1 0-0.2-0.1-0.1 0-0.8-0.5-1.7-1v-0.2c0-0.2 0.1-0.3 0.1-0.5 0.7 0.5 1.5 0.9 1.9 1.2 0.2 0 0.3 0.2 0.2 0.4z"/>
						<path class="st4" d="m185.7 148.3v0.9s0 0.5-0.1 0.4c-0.1 0-0.9-0.1-0.9-0.1l1-1.2z"/>
						<path d="m177 138.1-3.6 3.3c-0.2 0.2-0.5 0.2-0.7 0s-0.2-0.5 0-0.7l3.6-3.3c0.2-0.2 0.5-0.2 0.7 0 0.3 0.2 0.2 0.5 0 0.7z"/>
						<polygon class="st4" points="189.5 145.8 190.4 146.7 191.7 146.2"/>
						<path class="st1" d="m192.2 145.8s-3.3 1-3.4 1.5c0 0.4 0.8 1.5 2.3 1.6 0.7 0.1 2.6 0.1 2.6 0.1l-1.5-3.2z"/>
						<path class="st8" d="m167.2 136c-0.1 0-0.2 0-0.3-0.1l-7-4.5c-0.3-0.2-0.4-0.6-0.2-0.9s0.6-0.4 0.9-0.2l7 4.5c0.3 0.2 0.4 0.6 0.2 0.9-0.2 0.2-0.4 0.3-0.6 0.3z"/>
						<path class="st8" d="m170.9 132.9c-0.3 0-0.5-0.2-0.6-0.5l-2.3-7.5c-0.1-0.3 0.1-0.7 0.4-0.8s0.7 0.1 0.8 0.4l2.3 7.5c0.1 0.3-0.1 0.7-0.4 0.8-0.1 0.1-0.1 0.1-0.2 0.1z"/>
						<path class="st8" d="m177 131.6c-0.4 0-0.7-0.3-0.6-0.7l0.4-7.8c0-0.4 0.3-0.6 0.7-0.6s0.6 0.3 0.6 0.7l-0.4 7.8c-0.1 0.3-0.3 0.6-0.7 0.6z"/>
						<path class="st8" d="m157.8 141.2c-0.4 0-0.6-0.3-0.6-0.6 0-0.4 0.3-0.6 0.6-0.6l8.2-0.1c0.4 0 0.6 0.3 0.6 0.6 0 0.4-0.3 0.6-0.6 0.6l-8.2 0.1z"/>
						<path class="st19" d="m202.1 156.2c-0.8 3.9-2.9 10.9-8.3 15.2-0.2-0.1-0.4-0.3-0.6-0.4 5.4-4.2 7.5-11.3 8.3-15.1l0.6 0.3z"/>
										<path class="st20" d="m141 389.6c0 2.1-10.9 3.9-24.3 3.9s-24.3-1.8-24.3-3.9 11.2-2.5 24.7-2.5c13.3 0 23.9 0.4 23.9 2.5z"/>
										<path class="st21" d="m161.7 289.2v0.6c-0.2 4.7-2.5 36.7-20.9 63.9-19.9 29.5-9.4 40.6-9.4 40.6h-11.6s5.1-86.4 41.4-104.8c0.2-0.1 0.3-0.2 0.5-0.3z"/>
											<path class="st22" d="m161.7 289.2v0.6c-1.9 3.2-14.1 23.5-25 49.3-12.2 28.9-9.9 51.9-9.9 52.1s-0.1 0.3-0.3 0.3c-0.1 0-0.3-0.1-0.3-0.3s-2.4-23.4 9.9-52.4c11-25.9 23.2-46.3 25.1-49.4 0.2 0 0.3-0.1 0.5-0.2z"/>
					<g class="st16">
										<path d="m124 362.2 6 13s-2 7.9-1.3 11.5c0.7 3.7 1 4.6 1 4.6h-3.4l-2.7-27.2 0.4-1.9z"/>
					</g>
										<path class="st21" d="m119.4 394.3h-10s-5.5-27.5-28.7-48.8c-0.3-0.3-0.4-0.7-0.3-1 0-0.2 0.1-0.4 0.3-0.5 0.3-0.3 0.7-0.5 1.1-0.4 5.4 1 16.8 4.9 28.8 19.9 16.8 20.8 8.8 30.8 8.8 30.8z"/>
										<path class="st21" d="m130 395.7h-9.7s-1.6-4.6-9.7-32.3c-7.5-25.7 9.1-66.3 11.4-71.9l0.3-0.6c0.1 0 0.2-0.1 0.3-0.1 3.9-1.2 10.8 19.6 5.1 36.7-11 33.5 2.3 68.2 2.3 68.2z"/>
											<path class="st22" d="m123.1 393.3c0.1 0.2 0 0.3-0.2 0.4h-0.1c-0.1 0-0.2-0.1-0.3-0.2-4.7-12.4-9.9-39.8-4.7-64.7 4.4-21.5 4.4-34.3 4.3-37.2l0.3-0.6c0.1 0 0.2-0.1 0.3-0.1v0.1c0 0.1 0.8 13.4-4.3 38-5.1 24.7 0 52 4.7 64.3z"/>
											<path class="st22" d="m115.1 392.4c0 0.2-0.1 0.3-0.3 0.3s-0.3-0.1-0.3-0.3c-2.6-29.9-32.8-47.2-34.1-47.9 0-0.2 0.1-0.4 0.3-0.5 1 0.5 31.7 18 34.4 48.4z"/>
										<path class="st23" d="m141 389.6-0.8 7.7-0.1 0.7-0.6 6.2-0.1 0.7-3.4 34.4h-40.3l-2.4-34.4v-0.7l-0.4-6.4v-0.7l-0.5-7.4s7 1.6 24.7 1.6c18.6-0.1 23.9-1.7 23.9-1.7z"/>
							<path class="st24" d="m140.2 397.3-0.1 0.7c-7.7 1.2-15.2 1.6-22.1 1.6-10.2 0-19.1-0.9-25.2-1.8v-0.7c10.3 1.4 28.3 3 47.4 0.2z"/>
							<path class="st24" d="m139.6 404.1-0.1 0.7c-7.8 1.2-15.4 1.6-22.3 1.6-9.5 0-17.8-0.8-23.8-1.6v-0.7c10.4 1.4 27.7 2.8 46.2 0z"/>
			<g class="st7">
					<path class="st8" d="m177.2 269.9c-1.7 0-3-1.4-3-3 0-1.7 1.4-3 3-3 1.7 0 3 1.4 3 3s-1.3 3-3 3zm0-4.8c-1 0-1.8 0.8-1.8 1.8s0.8 1.8 1.8 1.8 1.8-0.8 1.8-1.8-0.8-1.8-1.8-1.8z"/>
			</g>
			<g class="st7">
					<path class="st8" d="m135.9 79.2c-2.3 0-4.3-1.9-4.3-4.3 0-2.3 1.9-4.3 4.3-4.3 2.3 0 4.3 1.9 4.3 4.3-0.1 2.4-2 4.3-4.3 4.3zm0-7.2c-1.6 0-3 1.3-3 3 0 1.6 1.3 3 3 3 1.6 0 3-1.3 3-3-0.1-1.7-1.4-3-3-3z"/>
			</g>
								<path class="st0" d="m1007.3 437.9h-290.2c0.2 0.5 0.4 0.9 0.6 1.4h289.7c0.4 0 0.7-0.3 0.7-0.7s-0.4-0.7-0.8-0.7z"/>
									<path class="st5" d="m958.4 432.8s-3.8 3-14.4 3.7c-12.5 0.9-14.4-1-14.4-1l-1.6-31c-2.4-47.2-8.2-94.3-17.4-140.7l-3.9-19.6 9.2 1 15.7-10.1c0.5-0.3 0.9-0.8 1.2-1.4 1.1-2.9 4-9.5 4.5-6.4l8.8 59.7c4.3 29.1 7.3 58.3 8.9 87.6l3.4 58.2z"/>
										<path class="st25" d="m857.6 436.7c-0.3 0.7 0.1 1.4 0.8 1.5 1.2 0.3 3 0.7 3.8 0.8 6.9 0.9 12.1 0.9 16.5 0.8 5.7-0.1 14.7-2.3 14.7-2.3v1.9h9.1s0.9-10.1-0.5-13.3c-0.7-1.7-5.1-6.1-5.1-6.1l-1.3 3.1-18.2-4.6s6.6 8.1-1.4 10.9c-0.1 0.1-0.3 0.1-0.4 0.2-0.4 0.2-0.6 0.6-1 0.8-0.2 0.1-1.8 0.4-2.4 0.5-0.2 0.1-0.3 0.1-0.5 0.1-0.1 0-0.2 0.1-0.3 0.1-0.2 0-0.4 0.1-0.5 0.1-0.7 0.2-1.6 0.4-2.4 0.6h-0.1c-0.2 0-0.3 0.1-0.5 0.1-0.1 0-0.2 0-0.3 0.1-6.4 1.2-8.9 2.6-9.6 3.7-0.1 0.1-0.1 0.2-0.1 0.2s-0.1 0.4-0.3 0.8z"/>
								<path class="st8" d="m942.6 142.5-7.1 62.5-56.9 4h-0.6l-0.1-1.5-7-61.1-0.9-28.3c-0.3-3.6 2-6.9 5.5-7.8l28.1-7.7 17.8 2.1 11.5 2.6 9.7 35.2z"/>
						<rect class="st26" transform="matrix(.9993 -.038465 .038465 .9993 -5.4442 34.641)" x="897.2" y="110.9" width=".6" height="95.8"/>
						<rect class="st26" transform="matrix(.9996 -.027665 .027665 .9996 -4.0012 25.39)" x="915.3" y="107.9" width=".6" height="98.8"/>
							<path class="st23" d="m775.2 429.1s-29.9 1.8-29.9 8.8 32.8 3.4 32.8 3.4l-2.9-12.2z"/>
						<path class="st27" d="m757.1 441.3c-0.3 0-6.9-0.4-8.7-3.1-0.3-0.4-0.3-0.8-0.1-1.3 0.9-2.2 8-3.6 8.8-3.8 0.2 0 0.3 0.1 0.4 0.2 0 0.2-0.1 0.3-0.2 0.4-2.1 0.4-7.7 1.9-8.3 3.4-0.1 0.2-0.1 0.4 0.1 0.7 1.6 2.4 8.1 2.8 8.2 2.8 0.2 0 0.3 0.2 0.3 0.3-0.2 0.3-0.3 0.4-0.5 0.4z"/>
						<path class="st27" d="m762.8 441.3c-0.2 0-0.3-0.1-0.3-0.3l-1.1-8.5c0-0.2 0.1-0.3 0.3-0.3s0.3 0.1 0.3 0.3l1.1 8.5c0.1 0.1 0 0.3-0.3 0.3 0.1 0 0.1 0 0 0z"/>
						<path class="st27" d="m768.3 440.8c-0.2 0-0.3-0.1-0.3-0.3l-1.1-8.5c0-0.2 0.1-0.3 0.3-0.3s0.3 0.1 0.3 0.3l1.1 8.5c0 0.1-0.1 0.3-0.3 0.3z"/>
							<rect class="st28" transform="matrix(.023881 -.9997 .9997 .023881 355.92 1188.8)" x="775" y="383.2" width="23.5" height="57.9"/>
						<path class="st28" d="m794.9 405.9c0.1 0.1 20.1-0.4 20.8-0.4 15.6-0.2 28.8-1.3 34.5 5.5 6.3 7.5 0.9 18.8-4.7 21-5.7 2.2-67.5 9.4-67.5 9.4l-4.2-18 38.6-9.7-17.5-7.8z"/>
						<path class="st28" d="m777.1 405.6c-0.1 0.1-20.1-0.6-20.8-0.6-15.6-0.4-28.8-1.5-34.5 5.2-6.4 7.4-1.1 18.8 4.5 21s67.4 10 67.4 10l4.4-18-38.5-10.1 17.5-7.5z"/>
					<path class="st29" d="m796.6 429.6s-0.1 0 0 0l-49.5-14c-0.2 0-0.3-0.2-0.2-0.4 0-0.2 0.2-0.3 0.4-0.2l49.4 14c0.2 0 0.3 0.2 0.2 0.4-0.1 0.1-0.2 0.2-0.3 0.2z"/>
					<path class="st29" d="m789 427.4c-0.1 0-0.3-0.1-0.3-0.2 0-0.2 0.1-0.3 0.2-0.4l40.8-11.3c0.2 0 0.3 0.1 0.4 0.2 0 0.2-0.1 0.3-0.2 0.4l-40.9 11.3c0.1 0 0 0 0 0z"/>
					<path class="st29" d="m755.8 418c-0.1 0-0.1 0-0.2-0.1l-4.3-3.8c-0.1-0.1-0.1-0.3 0-0.4s0.3-0.1 0.4 0l4.3 3.8c0.1 0.1 0.1 0.3 0 0.4 0 0.1-0.1 0.1-0.2 0.1z"/>
					<path class="st29" d="m822.6 418c-0.1 0-0.2 0-0.2-0.1-0.1-0.1-0.1-0.3 0-0.4l4.3-3.8c0.1-0.1 0.3-0.1 0.4 0s0.1 0.3 0 0.4l-4.3 3.8c-0.1 0.1-0.1 0.1-0.2 0.1z"/>
						<path class="st30" d="m813.3 405.3-12.4 0.6-30.7-0.3h-2.3s-2.5-2.8-7.3-4.9c-0.7-0.3-2.3-48.6 6-59.8 0.1-0.2 0.3-0.4 0.4-0.5l0.7-0.7c0.3-0.3 0.5-0.5 0.8-0.6 0.1-0.1 0.1-0.1 0.2-0.1 0.3-0.2 0.6-0.3 0.9-0.5l0.2-0.2c12.6-6.3 26.5-2.4 26.5-2.4 0.9 0.5 2.8 1 5 1.9 0.4 0.2 0.8 0.4 1.2 0.5 0.5 0.2 1.1 0.5 1.6 0.8l0.6 0.3c0.9 0.5 1.7 1.1 2.5 1.7v0.1c0.9 0.7 1.7 1.5 2.4 2.5 4 5.5 3.7 61.6 3.7 61.6z"/>
									<polygon class="st5" points="875.9 240.4 874.6 430.3 902.8 432.8 908.8 245.2 881.7 231.4"/>
								<path class="st5" d="m938.7 250.4c-0.3 2.2-15.9 4.7-32.7 4-16.8-0.6-30.9-2-30.1-14.1 1.5-24.6 0-31.6 9.6-28.7 10.7 3.2 50.3-3.7 50.3-3.7s3.4 38.4 2.9 42.5z"/>
						<path class="st6" d="m908.2 223.8c-1.2 0-2.3-1-2.3-2.2l-0.7-13.8h0.6l0.7 13.8c0 0.9 0.8 1.7 1.8 1.6l2.8-0.1v0.6l-2.9 0.1c0.1 0 0.1 0 0 0z"/>
						<path class="st6" d="m911.3 229.8c-0.2 0-0.3-0.1-0.3-0.3l-0.6-17.8c0-0.2 0.1-0.3 0.3-0.3s0.3 0.1 0.3 0.3l0.6 17.8c0 0.1-0.1 0.3-0.3 0.3z"/>
								<path class="st1" d="m894.5 82c1.6 8.3-0.3 16.1-3.6 21.9-1.9 3.4 0.8 7.6 4.7 7l24.2-3.6s-13-15-8.1-31.4l-18 2.7c0.1 0 0.3 1 0.8 3.4z"/>
								<path class="st31" d="m893.7 84.3s11.1 6.2 15 3.3l2.1-1.9c0.2 2.5-4.1 6.7-7.3 6.6-3.4-0.2-8.3-3.8-9.8-8z"/>
								<path class="st32" d="m897.4 86.3c-11.4-1.6-15.4-15.4-16.5-27.2-0.3-3.1-0.4-6.1-0.4-8.7v-0.3c0.2-12 7.5-17.9 18.6-18.1 15.3-0.2 22 6.7 21.8 18.8-0.1 12.2 5.3 39.4-23.5 35.5z"/>
								<path class="st1" d="m919.5 65.2c-0.1 12.6-7.3 25.2-16.3 25.1-9.1-0.1-19-14.6-18.9-27.2s6.4-28.5 15.5-28.4c9.1 0 19.9 17.9 19.7 30.5z"/>
								<path class="st9" d="m923.5 105.2-4.9 7.5-14-2.9-12.8 4.2-7.3-6.2 2-1.6 1.8-1.4 3.8-3.1s17 3.6 22.7-2l5.6 3.6 0.9 0.7 0.5 0.4 1.7 0.8z"/>
								<path class="st31" d="m903.6 78c-0.1 0-0.1-0.1-0.2-0.1-0.1-0.1-0.1-0.3 0.1-0.4l2.1-1.2c0.6-0.3 1.3-0.7 1.5-0.9-3.1-1.8-4.5-5-3.8-8.6 0-0.2 0.2-0.3 0.3-0.2 0.2 0 0.3 0.2 0.2 0.3-0.7 3.4 0.6 6.4 3.5 8 0.3 0.1 0.3 0.3 0.3 0.4 0 0.4-0.6 0.7-1.8 1.4-0.6 0.3-1.4 0.7-2 1.2 0 0.1-0.1 0.1-0.2 0.1z"/>
									<path class="st26" d="m906.9 123.9c0 1.6-0.6 3-1.3 3s-1.3-1.3-1.3-3c0-1.6 0.6-3 1.3-3s1.3 1.4 1.3 3z"/>
									<path class="st26" d="m907.6 140.5c0 1.6-0.6 3-1.3 3s-1.3-1.3-1.3-3c0-1.6 0.6-3 1.3-3s1.3 1.4 1.3 3z"/>
									<path class="st33" d="m908.2 157.1c0 1.6-0.6 3-1.3 3s-1.3-1.3-1.3-3c0-1.6 0.6-3 1.3-3s1.3 1.3 1.3 3z"/>
									<path class="st33" d="m908.9 173.7c0 1.6-0.6 3-1.3 3s-1.3-1.3-1.3-3c0-1.6 0.6-3 1.3-3s1.3 1.3 1.3 3z"/>
									<path class="st26" d="m909.5 190.4c0 1.6-0.6 3-1.3 3s-1.3-1.3-1.3-3c0-1.6 0.6-3 1.3-3 0.8 0 1.3 1.3 1.3 3z"/>
									<path class="st1" d="m889.6 68.2c3.3 3.7 4.8 7.7 3.3 9.1-1.5 1.3-5.4-0.6-8.7-4.2-3.3-3.7-4.8-7.7-3.3-9.1s5.4 0.5 8.7 4.2z"/>
									<path class="st31" d="m881.5 66.8c-0.1 0-0.2-0.1-0.2-0.2-0.2-0.7-0.2-1.2 0.1-1.6 0.5-0.6 1.5-0.6 1.6-0.6s0.3 0.1 0.3 0.3-0.1 0.3-0.3 0.3-0.8 0-1.1 0.4c-0.2 0.2-0.2 0.6 0 1.1 0 0.2 0 0.3-0.2 0.4-0.1-0.1-0.1-0.1-0.2-0.1z"/>
									<path class="st31" d="m886 72.6c-1.9-1-3.9-4.1-4-4.3-0.1-0.1 0-0.3 0.1-0.4s0.3 0 0.4 0.1c0 0 2 3.2 3.7 4 0.1 0.1 0.2 0.2 0.1 0.4 0 0.2-0.2 0.3-0.3 0.2z"/>
									<path class="st32" d="m917.7 59.6c-0.2-0.8-6.6-2.4-9.5-1.1-3 1.4-2.7 3.7-2.1 3.2 0.6-0.4 3.7-1.6 5.5-1.6 1.7 0 6.2 0 6.1-0.5z"/>
									<path class="st32" d="m886.2 64c0-0.8 5.6-4.2 8.8-3.7s3.6 2.8 2.9 2.5c-0.7-0.2-4-0.5-5.7 0-1.6 0.5-6 1.7-6 1.2z"/>
										<polygon class="st32" points="914.4 64.4 909.1 65 909.3 66.3 915 65.2"/>
										<path class="st32" d="m910.7 67.2c0.2 1.2 0.9 2.1 1.7 2 0.7-0.1 1.1-1.2 1-2.4-0.2-1.2-0.9-2.1-1.7-2-0.7 0.1-1.2 1.1-1 2.4z"/>
										<polygon class="st32" points="891.1 67.1 896.2 66 896.5 67.2 890.8 68.1"/>
										<path class="st32" d="m895.4 68.7c0.1 1.2-0.4 2.3-1.1 2.3-0.7 0.1-1.4-0.9-1.5-2.1s0.4-2.3 1.1-2.3c0.7-0.1 1.4 0.9 1.5 2.1z"/>
								<path class="st31" d="m901.6 81.6c-1.3-0.3-2.2-0.6-2.3-0.7s-0.2-0.2-0.2-0.4c0.1-0.1 0.2-0.2 0.4-0.2 0 0 2.5 1 4.8 0.8 2.9-0.3 4.7-1.8 4.7-1.8 0.1-0.1 0.3-0.1 0.4 0s0.1 0.3 0 0.4-1.9 1.7-5.1 2c-0.9 0.2-1.8 0.1-2.7-0.1z"/>
								<path class="st34" d="m886.1 50.4-1.3 6.6c-1.9 1-4.2-0.3-4.3-2.4-0.1-1.5-0.1-2.9-0.1-4.2 0.1 0 0.1 0 0.2-0.1 0.9 0.6 2.2-1 5.5 0.1z"/>
								<path class="st32" d="m919 62.9-3.5-10.2v-0.2s-0.2 0.1-0.6 0.2c-0.5 0.2-1.4 0.4-2.6 0.8-7.2 2.1-24.7 6.5-29.6 2.3-3.9-3.4-7.9-11.7 0.4-18.1 14.3-11.2 27.9-2.2 33.4 5.8s4 8.6 4.4 11.8c0.5 3.1-1.9 7.6-1.9 7.6z"/>
									<path class="st29" d="m915.5 52.4s-0.2 0.1-0.6 0.2c-0.5 0.2-1.4 0.4-2.6 0.8 0.9-1.1 3.9-6.4 3.7-8.5v-0.2c0-0.2 0.1-0.3 0.3-0.3 0.1 0 0.3 0.1 0.3 0.3v0.1c0.3 4.7-0.4 6.6-1.1 7.6z"/>
								<path class="st31" d="m903.7 84.7c-0.8-0.2-1.3-0.5-1.3-0.5-0.1-0.1-0.2-0.3-0.1-0.4s0.3-0.2 0.4-0.1 1.9 1.3 3.8-0.3c0.1-0.1 0.3-0.1 0.4 0s0.1 0.3 0 0.4c-1.2 1-2.3 1-3.2 0.9z"/>
						<path class="st35" d="m798.9 274.3c3.2 1.4 5.9 10.7 5.6 14.4-0.5 7.6-2.7 9.4-2.7 9.4l-5.5-14.7c0.1 0.1 0.5-10.1 2.6-9.1z"/>
								<path class="st1" d="m798.6 336.9s-2.1 4.7-13.1 5.1c-7.5 0.3-14.8-2.8-12.2-5.1 2.4-2.1 4-8.9 3.5-16.5 0-0.7-0.1-1.3-0.2-2-0.1-1-0.3-1.9-0.4-2.9-0.4-2.2-0.6-3.2-0.6-3.2l16.9-2.1c-1 3.5-1.5 6.7-1.5 9.4v1c0.5 11.3 7.6 16.3 7.6 16.3z"/>
								<path class="st31" d="m791.4 319.4c0 0.4-0.1 0.8-0.3 1.3-0.9 2.3-4.2 4.9-6.7 4.7-2.4-0.2-5.6-2.2-7.6-5 0-0.7-0.1-1.3-0.2-2 2.8 1.5 9.8 4.8 12.7 2.8l1.7-1.5 0.4-0.3z"/>
								<path class="st35" d="m778.6 317.8c-12-1.6-13.8-12.9-14.6-23.9-0.2-2.9-0.2-5.8-0.1-8.1v-0.3c0.5-11.2 8-14.1 18.4-14 14.3 0.1 19.7 4.3 19.3 15.6s5.6 34.6-23 30.7z"/>
								<path class="st1" d="m800 300.5c-0.4 11.8-7.3 23.4-15.8 23.1s-17.4-14-17-25.8 6.7-26.5 15.1-26.2c8.4 0.2 18.1 17.1 17.7 28.9z"/>
								<path class="st31" d="m785.7 312.6c0.1 0 0.1-0.1 0.1-0.2s0-0.3-0.2-0.3c-0.7-0.2-1.5-0.4-2.2-0.5-0.6-0.1-1.3-0.3-1.6-0.4 2.3-2.4 2.7-5.6 1.1-8.7-0.1-0.1-0.2-0.2-0.4-0.1-0.1 0.1-0.2 0.2-0.1 0.4 1.5 2.9 1.2 5.9-1 8.1-0.2 0.2-0.2 0.4-0.1 0.5 0.1 0.4 0.7 0.5 2 0.8 0.7 0.1 1.4 0.3 2.1 0.5 0.2-0.1 0.2-0.1 0.3-0.1z"/>
									<path class="st36" d="m798.6 298.1c-0.1-0.7-6.1-2.4-8.9-1.2s-2.6 3.4-2 3 3.5-1.5 5.1-1.4c1.7 0 5.9 0.1 5.8-0.4z"/>
									<path class="st36" d="m768.6 300.7c0-0.7 5.3-3.8 8.3-3.3s3.3 2.7 2.7 2.4c-0.7-0.2-3.8-0.6-5.3-0.2-1.6 0.5-5.7 1.6-5.7 1.1z"/>
										<polygon class="st32" points="773.3 302.9 778.2 302 778.4 303.2 773 303.8"/>
										<path class="st32" d="m777.2 304.4c0.1 1-0.4 1.9-1 2-0.6 0-1.2-0.8-1.2-1.8-0.1-1 0.4-1.9 1-2s1.2 0.7 1.2 1.8z"/>
										<polygon class="st32" points="794.9 302.4 790 301.5 789.8 302.7 795.2 303.3"/>
										<path class="st32" d="m791 303.9c-0.1 1 0.4 1.9 1 2 0.6 0 1.2-0.8 1.2-1.8 0.1-1-0.4-1.9-1-2s-1.2 0.7-1.2 1.8z"/>
								<path class="st31" d="m782.9 315.4c-1.2-0.3-2.1-0.7-2.1-0.7-0.1-0.1-0.2-0.2-0.1-0.4 0.1-0.1 0.2-0.2 0.4-0.1 0 0 2.3 1 4.4 0.9 2.8-0.2 4.5-1.6 4.5-1.6 0.1-0.1 0.3-0.1 0.4 0s0.1 0.3 0 0.4-1.8 1.5-4.8 1.7c-1 0.1-1.9-0.1-2.7-0.2z"/>
									<path class="st35" d="m766.5 301.5 1.1-10v-0.2h0.6c0.5 0 1.4 0.1 2.5 0.2 7 0.4 23.8 0.9 27.4-4 2.9-3.9 4.6-15.3-5.6-19-25-9-25.7 4.6-29.1 13-3.3 8.4-2.8 11.1-1.7 13.8 1.1 2.8 4.8 6.2 4.8 6.2z"/>
										<path class="st36" d="m767.9 291.3h0.2c0.5 0 1.4 0.1 2.5 0.2-1-0.8-4.8-5.1-5.1-6.9v-0.2c0-0.2-0.2-0.2-0.3-0.2s-0.2 0.2-0.2 0.3v0.1c0.7 4.2 2.9 6.7 2.9 6.7z"/>
								<path class="st31" d="m784.5 317.9c-0.8-0.2-1.3-0.6-1.3-0.6-0.1-0.1-0.2-0.3-0.1-0.4s0.3-0.2 0.4-0.1 1.9 1.3 3.9-0.2c0.1-0.1 0.3-0.1 0.4 0.1 0.1 0.1 0.1 0.3-0.1 0.4-1.2 1-2.4 1-3.2 0.8z"/>
									<path class="st1" d="m772 302.6c3 3.5 4.3 7.3 2.9 8.6-1.4 1.2-5-0.6-8-4.1s-4.3-7.3-2.9-8.6 5 0.6 8 4.1z"/>
									<path class="st31" d="m764.5 301.1c-0.1 0-0.2-0.1-0.2-0.2-0.2-0.6-0.1-1.1 0.1-1.5 0.5-0.6 1.4-0.5 1.5-0.5s0.3 0.1 0.2 0.3c0 0.1-0.1 0.3-0.3 0.2-0.2 0-0.8 0-1 0.3-0.2 0.2-0.2 0.5-0.1 1 0 0.1 0 0.3-0.2 0.3 0.1 0.1 0 0.1 0 0.1z"/>
									<path class="st31" d="m768.5 306.7v0c-1.8-1-3.5-4-3.6-4.1s0-0.3 0.1-0.4 0.3 0 0.4 0.1c0 0 1.8 3 3.3 3.9 0.1 0.1 0.2 0.2 0.1 0.4 0 0-0.2 0.1-0.3 0.1z"/>
									<path class="st1" d="m801.3 305c-1.8 4.2-4.7 7.1-6.4 6.4s-1.7-4.8 0.1-9 4.7-7.1 6.4-6.4c1.8 0.7 1.7 4.7-0.1 9z"/>
									<path class="st31" d="m801.5 299.5c-0.1 0-0.2-0.2-0.2-0.3 0-0.2 0.1-0.7-0.2-1-0.2-0.2-0.5-0.3-1-0.2-0.1 0-0.3-0.1-0.3-0.2s0.1-0.3 0.2-0.3c0.6-0.1 1.1 0.1 1.4 0.4 0.5 0.6 0.3 1.5 0.3 1.5 0.1 0 0 0.1-0.2 0.1z"/>
									<path class="st31" d="m799.1 306.4s-0.1 0-0.1-0.1c-0.1-0.1-0.1-0.3 0-0.4 1.3-1.2 2.2-4.5 2.2-4.6s0.2-0.2 0.3-0.2 0.2 0.2 0.2 0.3-1 3.5-2.4 4.8c0 0.2-0.1 0.2-0.2 0.2z"/>
			<g class="st7">
								<rect class="st8" transform="matrix(.7151 -.699 .699 .7151 117.72 748.76)" x="976.8" y="225.3" width="1.3" height="9.4"/>
								<rect class="st8" transform="matrix(.7244 -.6893 .6893 .7244 110.78 737.09)" x="972.6" y="229.3" width="9.4" height="1.3"/>
			</g>
			<g class="st7">
								<rect class="st8" transform="matrix(.7151 -.699 .699 .7151 171.02 614.85)" x="839.2" y="92.9" width="1.3" height="9.4"/>
								<rect class="st8" transform="matrix(.7244 -.6893 .6893 .7244 164.06 605.83)" x="835.1" y="97.1" width="9.4" height="1.3"/>
			</g>
			<g class="st7">
								<rect class="st8" transform="matrix(.7151 -.699 .699 .7151 -44.691 351.05)" x="407.7" y="225.7" width="1.3" height="9.4"/>
								<rect class="st8" transform="matrix(.7244 -.6893 .6893 .7244 -46.331 344.96)" x="403.6" y="229.8" width="9.4" height="1.3"/>
			</g>
			<g class="st7">
								<rect class="st8" transform="matrix(.8116 -.5843 .5843 .8116 -19.047 550.61)" x="839.4" y="304.2" width="9.4" height="1.3"/>
								<rect class="st8" transform="matrix(.8193 -.5733 .5733 .8193 -22.254 538.96)" x="843.4" y="300.1" width="1.3" height="9.4"/>
			</g>
						<path class="st8" d="m443.9 144c-0.1 0-0.2 0-0.3-0.1l-6.8-4.4c-0.3-0.2-0.4-0.6-0.2-0.9s0.6-0.4 0.9-0.2l6.8 4.4c0.3 0.2 0.4 0.6 0.2 0.9-0.2 0.2-0.4 0.3-0.6 0.3z"/>
						<path class="st8" d="m447.5 140.9c-0.3 0-0.5-0.2-0.6-0.4l-2.2-7.3c-0.1-0.3 0.1-0.7 0.4-0.8s0.7 0.1 0.8 0.4l2.2 7.3c0.1 0.3-0.1 0.7-0.4 0.8h-0.2z"/>
						<path class="st8" d="m453.5 139.7c-0.4 0-0.6-0.3-0.6-0.7l0.3-7.6c0-0.3 0.3-0.6 0.7-0.6 0.3 0 0.6 0.3 0.6 0.7l-0.3 7.6c-0.1 0.3-0.4 0.6-0.7 0.6z"/>
						<path class="st8" d="m434.8 149c-0.3 0-0.6-0.3-0.6-0.6s0.3-0.6 0.6-0.6l8-0.1c0.3 0 0.6 0.3 0.6 0.6s-0.3 0.6-0.6 0.6l-8 0.1z"/>
						<path class="st8" d="m783.2 374.6c-0.3 0-0.5-0.2-0.6-0.5l-2.1-7.5c-0.1-0.3 0.1-0.7 0.4-0.8s0.7 0.1 0.8 0.4l2.1 7.5c0.1 0.3-0.1 0.7-0.4 0.8-0.1 0.1-0.2 0.1-0.2 0.1z"/>
						<path class="st8" d="m787.9 374.7c-0.1 0-0.2 0-0.3-0.1-0.3-0.1-0.5-0.5-0.3-0.8l3.2-6.9c0.1-0.3 0.5-0.4 0.8-0.3s0.5 0.5 0.3 0.8l-3.2 6.9c0 0.3-0.3 0.4-0.5 0.4z"/>
						<path class="st8" d="m793.2 377.7c-0.2 0-0.3-0.1-0.4-0.2-0.2-0.2-0.3-0.6 0-0.9l5.3-5.5c0.2-0.2 0.6-0.3 0.9 0 0.2 0.2 0.3 0.6 0 0.9l-5.3 5.5c-0.2 0.2-0.3 0.2-0.5 0.2z"/>
						<path class="st8" d="m779 377.5c-0.1 0-0.3-0.1-0.4-0.2l-6-5.3c-0.3-0.2-0.3-0.6-0.1-0.9s0.6-0.3 0.9-0.1l6 5.3c0.3 0.2 0.3 0.6 0.1 0.9-0.2 0.2-0.3 0.3-0.5 0.3z"/>
							<path class="st23" d="m796.6 429s29.9 1.8 29.9 8.8-32.8 3.4-32.8 3.4l2.9-12.2z"/>
						<path class="st27" d="m814.8 441.2c-0.2 0-0.3-0.1-0.3-0.3s0.1-0.3 0.3-0.3c0.1 0 6.6-0.4 8.2-2.8 0.2-0.2 0.2-0.4 0.1-0.7-0.7-1.6-6.2-3-8.3-3.4-0.2 0-0.3-0.2-0.2-0.4 0-0.2 0.2-0.3 0.4-0.2 0.8 0.2 7.9 1.6 8.8 3.8 0.2 0.4 0.1 0.9-0.1 1.3-2 2.6-8.6 3-8.9 3z"/>
						<path class="st27" d="m809 441.2c-0.2 0-0.3-0.2-0.3-0.4l1.1-8.5c0-0.2 0.2-0.3 0.3-0.3 0.2 0 0.3 0.2 0.3 0.3l-1.1 8.5c0 0.3-0.1 0.4-0.3 0.4z"/>
						<path class="st27" d="m803.6 440.7s-0.1 0 0 0c-0.2 0-0.3-0.2-0.3-0.4l1.1-8.5c0-0.2 0.2-0.3 0.3-0.3 0.2 0 0.3 0.2 0.3 0.3l-1.1 8.5c0 0.2-0.2 0.4-0.3 0.4z"/>
						<path class="st8" d="m922 104.2-4.7 5.8c-0.1 0.1-0.2 0.1-0.3 0.1l-12.3-3.3-11.8 4.5h-0.1c-0.1 0-0.1 0-0.2-0.1-1.6-1.1-4.6-3.3-6.5-4.7l0.5-0.4c1.7 1.2 4.3 3.1 6.2 4.5l11.7-4.4h0.2l12.2 3.2 4.6-5.6 0.5 0.4z"/>
					<path class="st6" d="m953.1 435.4c0-0.3-0.8-29.1-2.9-58.3-3.1-43.2-12.8-119.1-20.1-164.7l0.6-0.1c7.3 45.6 17.1 121.6 20.1 164.8 2.1 29.2 2.9 58 2.9 58.3h-0.6z"/>
					<polygon class="st6" points="880.5 430.8 879.8 430.8 882.8 213.3 883.4 213.3"/>
								<path class="st25" d="m957.8 439.1-26.3 0.6v-0.2c-0.1-4.1 1.2-5.2 4.1-7.2 2.1-1.4 4.1-1.9 7.8-2.3 3.8-0.4 5.3 0 8.4 1.2 3.3 1.3 5.9 3.8 6 7.9z"/>
									<path class="st37" d="m877.4 216.7c0.8-0.2 58.7-4.4 58.7-4.4l-0.5-8.7-57.8 4.7-0.4 8.4z"/>
										<rect class="st5" transform="matrix(.998 -.063228 .063228 .998 -11.592 56.892)" x="891.6" y="207.1" width="3" height="9"/>
									<polygon class="st5" points="930.7 212.7 927.7 212.9 927.2 204.3 930.2 204.1"/>
									<polygon class="st5" points="921.8 213.8 918.8 214 918.3 205 921.3 204.8"/>
									<polygon class="st5" points="886.4 216 883.4 216.9 882.9 208 885.9 207.7"/>
									<polygon class="st9" points="913.5 214 903.2 214.7 902.6 206.3 913 205.5"/>
											<path class="st1" d="m880.2 227.6c-1.1 0-0.4-8-2-4.6-0.5 1.1 0.2 6.1-0.3 10.6-0.1 1.3 0 4.5-0.7 5.2-0.3 0.3-0.6-0.1-0.8-0.2-0.1 0-0.1 0-0.2 0.1-0.2 0.3-0.3 0.8-0.4 1.3-0.1 0.4-0.3 0.8-0.5 0.9-0.2 0.2-0.6-0.1-0.9-0.2-0.1-0.1-0.3-0.1-0.4 0-0.1 0-0.2 0.2-0.3 0.3-0.2 0.3-0.4 0.7-0.7 0.7-0.2 0-0.4-0.4-0.6-0.7l-0.3-0.3h-0.3c-0.4 0.1-0.9 0.7-1.1-0.2-0.9-4.3 0-17.5-3-24.5-1.2-2.9 10.7-8.9 10.7-8.9s1.3 3.4 2.5 10.4c0.3 1.7 2.2 10.1-0.7 10.1z"/>
												<path class="st31" d="m874.4 240.8c-0.1-0.1-0.3-0.1-0.4 0-0.1 0-0.2 0.2-0.3 0.3-0.1-2.2-0.2-7.5-0.1-9 0-0.2 0.1-0.3 0.3-0.3s0.3 0.2 0.3 0.3c0 1.3 0.1 6.3 0.2 8.7z"/>
												<path class="st31" d="m876.4 238.6c-0.1 0-0.1 0-0.2 0.1-0.2 0.3-0.3 0.8-0.4 1.3 0-2.2-0.1-8.8 0-10.3 0-0.2 0.2-0.3 0.3-0.3 0.2 0 0.3 0.2 0.3 0.3-0.1 1.3-0.1 6.1 0 8.9z"/>
												<path class="st31" d="m872.4 241.1-0.3-0.3h-0.3c-0.1-4.5-0.2-10.4-0.2-10.7 0-0.2 0.1-0.3 0.3-0.4 0.2 0 0.3 0.1 0.3 0.3 0.1 0.4 0.2 8.1 0.2 11.1z"/>
											<path class="st1" d="m875.4 204.8 3.4 5.5-11.1 5.9-0.7-0.9c0.1 0 2.8-6.4 8.4-10.5z"/>
								<path class="st8" d="m864.7 173.6 16.2 34.5s-3.7 6-5.3 7.5c-4.7 4.4-7.8 3.3-7.8 3.3l-21.2-30.4c-3.7-5.4-2.6-8.5-1.7-15 2.7-20.5 10.7-59.3 31-63.4 2.8-0.6 5.9 18.1 5.9 18.1l-16.7 44-0.3 0.8-0.1 0.4v0.2z"/>
						<path class="st26" d="m864.7 173.6-5.6 1.3h-0.1c-0.1 0-0.3-0.1-0.3-0.2 0-0.2 0.1-0.3 0.2-0.4l5.8-1.3v0.6z"/>
					<path class="st26" d="m880.9 208.4c-0.1 0-0.2-0.1-0.3-0.2l-4.1-8.9c-0.1-0.2 0-0.3 0.2-0.4s0.3 0 0.4 0.2l4.1 8.9c0.1 0.2 0 0.3-0.2 0.4h-0.1z"/>
					<path class="st26" d="m871.7 154.7c-0.2 0-0.3-0.2-0.3-0.4 3.8-20.9 3.3-29.7 3.3-29.8 0-0.2 0.1-0.3 0.3-0.3s0.3 0.1 0.3 0.3c0 0.1 0.5 8.9-3.3 29.9 0 0.2-0.1 0.3-0.3 0.3z"/>
					<path class="st26" d="m874.7 134.4c-0.2 0-0.3-0.1-0.3-0.3 0-1.8-1.9-7-1.9-7.1-0.1-0.2 0-0.3 0.2-0.4s0.3 0 0.4 0.2 2 5.4 2 7.3c-0.1 0.1-0.3 0.3-0.4 0.3z"/>
					<path class="st38" d="m936.6 409.8c-0.3-0.1-0.3-0.3-0.2-0.4 4.5-9.5 3.2-45.4 3.1-45.8 0-0.2 0.1-0.3 0.3-0.3s0.3 0.1 0.3 0.3c0.1 1.5 1.4 36.4-3.2 46.1-0.1 0-0.2 0.1-0.3 0.1z"/>
					<path class="st26" d="m924.8 169.9c0 3.7-1.5 6.8-3.4 6.8s-3.4-3-3.4-6.8c0-3.7 1.5-6.8 3.4-6.8s3.4 3 3.4 6.8z"/>
							<polygon class="st31" points="912.3 155.5 918.7 160.6 923.3 161.3 919.4 167.1 913.4 166.2"/>
							<path class="st39" d="m915.6 178.9h-11.3c-1 0-1.9-0.9-1.9-1.9v-24.7c0-1 0.9-1.9 1.9-1.9h11.3c1 0 1.9 0.9 1.9 1.9v24.7c0 1.1-0.8 1.9-1.9 1.9z"/>
							<path class="st1" d="m923.6 161.2s-5.5 0.8-8.5 2.9c-2.6 1.9-2.8 7.8-0.2 9.2 0.6 0.3 1.2 0.5 1.9 0.7 2.8 0.7 5.8 0.2 8.5-1l4.6-2.2-6.3-9.6z"/>
							<path class="st1" d="m916.8 163.2s-14.5 0.9-15 2c-0.4 0.9 6.1 1.6 9.1 1.4 2.9-0.2 5.5-0.2 5.5-0.2l0.4-3.2z"/>
							<path class="st1" d="m915.5 166.8-6.7 0.4s-4.8-0.1-6.5 0.1c-1.2 0.1-1.2 1-1.1 1.3 0.3 1.3 6.7 0.9 9.7 0.7 2.9-0.2 5.5-0.2 5.5-0.2l-0.9-2.3z"/>
							<path class="st1" d="m916.2 169.6-7.6 0.5h-6.5c-1.1 0.2-0.9 1.6-0.1 1.8 1.6 0.6 7 0.4 9.5 0.2 2.9-0.2 5.6-0.1 5.6-0.1l-0.9-2.4z"/>
							<path class="st1" d="m918.7 172.1s-8.4 0.4-12.1 0.9c-1.1 0.1-1.2 0.5-1.2 0.9 0 0.5 1.8 0.7 2.2 0.8 2.7 0.1 4 0.1 6.6-0.1 2.9-0.2 5.7-0.2 5.7-0.2l-1.2-2.3z"/>
						<path class="st8" d="m932.7 107.3c20.8 4 39.5 65.6 34 75.4-5.6 9.8-44.8-6-44.8-6s1-1.6 1.7-6.8c0.3-2.6 0-8.7 0-8.7l25.1 3.4s-8.5-8.1-11.8-18.8c-5.3-17-12.4-40-4.2-38.5z"/>
					<path class="st26" d="m948.7 165c-0.1 0-0.1 0 0 0l-25.2-3.1c-0.2 0-0.3-0.2-0.3-0.3 0-0.2 0.2-0.3 0.3-0.3l25.1 3.1c0.2 0 0.3 0.2 0.3 0.3 0.1 0.2-0.1 0.3-0.2 0.3z"/>
					<path class="st26" d="m937.7 182.5-17.2-6c-0.2-0.1-0.2-0.2-0.2-0.4 0.1-0.2 0.2-0.2 0.4-0.2l17.1 6c0.2 0.1 0.2 0.2 0.2 0.4 0 0.1-0.1 0.2-0.3 0.2z"/>
					<path class="st26" d="m941.1 154.9c-0.2 0-0.3-0.1-0.3-0.3s-3.4-22-2.8-30.1c0-0.2 0.2-0.3 0.3-0.3 0.2 0 0.3 0.2 0.3 0.3-0.6 8 2.8 29.7 2.8 29.9 0 0.3-0.1 0.5-0.3 0.5z"/>
					<path class="st26" d="m959.2 168.9h-0.2c-4.8-2.6-10.4-3.9-10.4-3.9-0.1 0-0.2-0.2-0.2-0.3s0.1-0.3 0.2-0.3c3.6-0.9 4.9-0.8 4.9-0.8 0.2 0 0.3 0.1 0.3 0.3s-0.1 0.3-0.3 0.3c0 0-0.9 0-3.5 0.5 2 0.5 5.9 1.7 9.3 3.6 0.2 0.1 0.2 0.3 0.1 0.4 0 0.1-0.1 0.2-0.2 0.2z"/>
					<path class="st26" d="m938.6 135.2c-0.2 0-0.3-0.2-0.3-0.4s1.1-5.2 1.8-7.1c0.1-0.2 0.2-0.2 0.4-0.2 0.2 0.1 0.2 0.2 0.2 0.4-0.7 1.9-1.7 7-1.7 7-0.1 0.2-0.2 0.3-0.4 0.3z"/>
					<path class="st1" d="m901.5 164.1c-0.1 0.9 0.4 1.3 0.4 1.3l6.3-1.1-5.8-0.8c0 0.1-0.9 0.1-0.9 0.6z"/>
					<path class="st1" d="m902.4 167.3c-0.5 0-1.5 0.3-1.1 1.3l2.5-1.3c0-0.1-1-0.1-1.4 0z"/>
						<path class="st26" d="m907.6 155.5h-2.3c-0.4 0-0.7-0.1-1-0.4s-0.4-0.6-0.4-1v-0.9c0-0.8 0.6-1.4 1.4-1.4h2.3c0.8 0 1.4 0.6 1.4 1.4v0.9c0 0.8-0.7 1.4-1.4 1.4zm0-0.6c0.4 0 0.8-0.3 0.8-0.7v-0.9c0-0.4-0.3-0.8-0.7-0.8h-2.3c-0.4 0-0.7 0.3-0.7 0.7v0.9c0 0.2 0.1 0.4 0.2 0.5s0.3 0.2 0.5 0.2l2.2 0.1z"/>
						<path class="st26" d="m908.7 157.3h-4.5c-0.2 0-0.3-0.1-0.3-0.3s0.1-0.3 0.3-0.3h4.5c0.2 0 0.3 0.1 0.3 0.3s-0.1 0.3-0.3 0.3z"/>
									<path class="st1" d="m921.1 70c-1.8 4.6-4.8 7.7-6.7 7s-1.9-5.1-0.1-9.7 4.8-7.7 6.7-7c1.9 0.8 1.9 5.1 0.1 9.7z"/>
									<path class="st31" d="m921.2 64.1c-0.2 0-0.3-0.2-0.2-0.3 0-0.2 0.1-0.8-0.2-1.1-0.2-0.2-0.6-0.3-1-0.2-0.2 0-0.3-0.1-0.3-0.2 0-0.2 0.1-0.3 0.2-0.3 0.7-0.1 1.2 0 1.5 0.4 0.6 0.6 0.3 1.6 0.3 1.6 0 0.1-0.2 0.2-0.3 0.1z"/>
									<path class="st31" d="m918.8 71.6c-0.1 0-0.1 0 0 0-0.2-0.2-0.2-0.4-0.1-0.5 1.3-1.4 2.3-4.9 2.3-5 0-0.2 0.2-0.3 0.3-0.2 0.2 0 0.2 0.2 0.2 0.3 0 0.2-1 3.8-2.4 5.2-0.1 0.2-0.2 0.2-0.3 0.2z"/>
					<path class="st40" d="m771.3 400.1c0 2.9 0.3 5.6-1.1 5.6s-4-2.7-4-5.6 0.5-8.8 1.9-8.8 3.2 5.9 3.2 8.8z"/>
					<path class="st40" d="m803.6 400.1c0 2.9 1.2 5.7-0.2 5.7s-3.8-2.9-3.8-5.9c0-2.9 0-5.1 1.4-5.1s2.6 2.3 2.6 5.3z"/>
							<path class="st31" d="m789.8 388.2s10.6 2 12.3 4.8c0.6 0.9-4.1 2-4.1 2l-6.6-1.2-1.6-5.6z"/>
							<path class="st8" d="m790.7 408.7-11-0.3c-1.1 0-1.9-0.9-1.9-2l0.6-25.5c0-1.1 0.9-1.9 2-1.9l11 0.3c1.1 0 1.9 0.9 1.9 2l-0.6 25.5c-0.1 1.1-0.9 1.9-2 1.9z"/>
								<path class="st1" d="m801.8 392.8s-5.2-3.5-8.6-1.2c-3 2-3.3 8.6-0.5 10.3 1.9 1.1 4.8 1.1 6.5 1 0.7 0 1.4-0.1 2.1-0.3l13.7-2.6-13.2-7.2z"/>
								<path class="st1" d="m795.8 390.8s-14.2 0.8-14.1 2.3c0.1 1.1 4 1.2 7.3 1.1 3.2-0.1 6.1 0 6.1 0l0.7-3.4z"/>
								<path class="st1" d="m793.7 394.5s-12.5 0.2-12.4 1.7c0.1 1.1 4 1.2 7.3 1.1 3.2-0.1 6.1 0 6.1 0l-1-2.8z"/>
								<path class="st1" d="m794.4 397.6s-12.5 0.2-12.4 1.7c0.1 1.1 4 1.2 7.3 1.1 3.2-0.1 6.1 0 6.1 0l-1-2.8z"/>
								<path class="st1" d="m797 400.6s-12.5 0.2-12.4 1.7c0.1 1.1 4 1.2 7.3 1.1 3.2-0.1 8.5-0.5 8.5-0.5l-3.4-2.3z"/>
								<path class="st31" d="m778.2 388.8s-8.7 0.9-10.4 2.3c-1 0.8 4.1 3.3 4.1 3.3l6.2-1 0.1-4.6z"/>
								<path class="st1" d="m767.8 391.1s5.7-2.3 9 0.1c2.9 2.1 2.9 8.8 0 10.3-0.6 0.3-1.3 0.5-2.1 0.7-3 0.7-7.9 0.6-10.6-0.8l-5.7-1.3 9.4-9z"/>
								<path class="st1" d="m773 391.3c-0.4-0.5 0.2-1.2 0.8-1.2 4.1 0.5 14.6 2 14.5 3.2-0.1 1.1-4 1-7.3 0.7-3.2-0.3-6.1-0.3-6.1-0.3l-1.9-2.4z"/>
								<path class="st1" d="m776.2 394.1s12.5 0.8 12.3 2.2c-0.1 1.1-4 1-7.3 0.7-3.2-0.3-6.1-0.3-6.1-0.3l1.1-2.6z"/>
								<path class="st1" d="m775.4 397.2s12.5 0.8 12.3 2.2c-0.1 1.1-4 1-7.3 0.7-3.2-0.3-6.1-0.3-6.1-0.3l1.1-2.6z"/>
								<path class="st1" d="m772.6 400s12.5 0.8 12.3 2.2c-0.1 1.1-4 1-7.3 0.7-3.2-0.3-7.5-0.3-7.5-0.3l2.5-2.6z"/>
						<path class="st30" d="m768 391.2s-0.2 2.6 0 7.6c0.2 6.3 2.3 6.9 2.3 6.9v0.1l-25.9 0.2c-4.4-0.4-9.1-1-10.3-5.2-3-10.2 5.7-26.7 10.1-36.5 5.5-12.4 19.1-21.4 22.3-23.4 0.2-0.1 0.4-0.3 0.5-0.4 0.3-0.2 0.6-0.4 0.8-0.6 0.9-0.6 1.5-1 1.9-1.2 0.1-0.1 0.1-0.1 0.2-0.1l0.1-0.1-0.2 3.6v0.7l-0.1 14.8-14.2 33.2 12.5 0.4z"/>
						<path class="st30" d="m800.6 392s1.7 3.2 2 5c0.8 5.4 0.8 8.8 0.8 8.8l25.9 0.1c4.4-0.4 9.1-1 10.3-5.2 3-10.2-6.7-26.5-11.1-36.3-5.5-12.4-22.3-23.9-22.6-24.1-0.9-0.6-1.4-0.8-1.8-1-0.1-0.1-0.2 2.8-0.2 2.8v0.7l0.1 14.8 14.2 33.2-17.6 1.2z"/>
						<path class="st40" d="m804.8 339.5c0 0.1-0.1 0.1-0.1 0.1-0.2 0.2-0.4 0.4-0.7 0.6-3.9 3.4-9.5 6.5-17.3 6.7h-0.8c-6.3 0-12-2.1-16.2-4.3-1.1-0.6-2.1-1.2-3-1.7-0.1-0.1-0.2-0.1-0.3-0.2 0.2-0.1 0.4-0.3 0.5-0.4 0.1 0 0.1 0.1 0.2 0.1 0.8 0.5 1.7 1 2.7 1.5 4.1 2.2 9.8 4.4 16.1 4.4h0.7c7.8-0.2 13.3-3.4 17.1-6.7l0.3-0.3c0.1-0.1 0.1-0.1 0.2-0.1l0.6 0.3z"/>
						<path class="st40" d="m760.1 380.1s-0.1 0 0 0c-0.2-0.1-0.3-0.2-0.3-0.4l5.6-22.3c0-0.2 0.2-0.3 0.4-0.2 0.2 0 0.3 0.2 0.2 0.4l-5.6 22.3c0 0.1-0.2 0.2-0.3 0.2z"/>
						<path class="st40" d="m746 391.8c-0.2 0-0.3-0.1-0.3-0.3s0.1-0.3 0.3-0.3c9.8-1 16.8-1.1 22-0.3 0.2 0 0.3 0.2 0.3 0.4s-0.2 0.3-0.4 0.3c-5.2-0.9-12.2-0.8-21.9 0.2z"/>
						<path class="st40" d="m763 368.3c-0.2 0-0.3-0.1-0.3-0.3l-0.3-7.3c0-0.2 0.1-0.3 0.3-0.3s0.3 0.1 0.3 0.3l0.3 7.3c0.1 0.2-0.1 0.3-0.3 0.3 0.1 0 0.1 0 0 0z"/>
						<path class="st40" d="m813.2 379.7c-0.1 0-0.3-0.1-0.3-0.2l-5.2-21.9c0-0.2 0.1-0.3 0.2-0.4 0.2 0 0.3 0.1 0.4 0.2l5.2 21.9c0 0.2-0.1 0.3-0.3 0.4z"/>
						<path class="st40" d="m800.8 392.4c-0.2 0-0.3-0.1-0.3-0.3s0.1-0.3 0.3-0.4c9.5-1.5 18.2-1.8 25.8-0.9 0.2 0 0.3 0.2 0.3 0.3 0 0.2-0.2 0.3-0.3 0.3-7.7-0.8-16.3-0.5-25.8 1z"/>
						<path class="st40" d="m810.6 368.3c-0.2 0-0.3-0.2-0.3-0.3l0.3-7.3c0-0.2 0.2-0.3 0.3-0.3 0.2 0 0.3 0.2 0.3 0.3l-0.3 7.3c0 0.2-0.1 0.3-0.3 0.3z"/>
						<path class="st26" d="m783.8 384.9-2.4-0.1c-0.4 0-0.7-0.2-1-0.4-0.3-0.3-0.4-0.6-0.4-1v-0.9c0-0.4 0.2-0.7 0.4-1 0.3-0.3 0.6-0.4 1-0.4l2.3 0.1c0.8 0 1.4 0.6 1.3 1.4v0.9c0.1 0.8-0.5 1.4-1.2 1.4zm-2.3-3.1c-0.4 0-0.7 0.3-0.7 0.7v0.9c0 0.2 0.1 0.4 0.2 0.5s0.3 0.2 0.5 0.2l2.3 0.1c0.4 0 0.8-0.3 0.8-0.7v-0.9c0-0.2-0.1-0.4-0.2-0.5s-0.3-0.2-0.5-0.2l-2.4-0.1z"/>
						<path class="st26" d="m784.9 386.7-4.6-0.1c-0.2 0-0.3-0.1-0.3-0.3s0.1-0.3 0.3-0.3l4.5 0.1c0.2 0 0.3 0.1 0.3 0.3 0.1 0.2-0.1 0.3-0.2 0.3z"/>
			<g class="st7">
					<path class="st8" d="m861.7 12.7c-2.8 0-5-2.2-5-5s2.2-5 5-5 5 2.2 5 5-2.2 5-5 5zm0-8.7c-2.1 0-3.7 1.7-3.7 3.7s1.7 3.7 3.7 3.7 3.7-1.7 3.7-3.7-1.6-3.7-3.7-3.7z"/>
			</g>
			<g class="st7">
					<path class="st8" d="m983.8 150.2c-1.6 0-3-1.3-3-3 0-1.6 1.3-3 3-3 1.6 0 3 1.3 3 3-0.1 1.7-1.4 3-3 3zm0-4.7c-0.9 0-1.7 0.8-1.7 1.7s0.8 1.7 1.7 1.7 1.7-0.8 1.7-1.7-0.8-1.7-1.7-1.7z"/>
			</g>
			<g class="st7">
					<path class="st8" d="m413.4 88.6c-2.3 0-4.1-1.9-4.1-4.1 0-2.3 1.9-4.1 4.1-4.1 2.3 0 4.1 1.9 4.1 4.1 0 2.3-1.8 4.1-4.1 4.1zm0-7c-1.6 0-2.9 1.3-2.9 2.9s1.3 2.9 2.9 2.9 2.9-1.3 2.9-2.9-1.3-2.9-2.9-2.9z"/>
			</g>
</svg>
