<?xml version="1.0" encoding="UTF-8"?>
<svg enable-background="new 0 0 416 390" version="1.1" viewBox="0 0 416 390" xml:space="preserve" xmlns="http://www.w3.org/2000/svg" xmlns:xlink="http://www.w3.org/1999/xlink">
<style type="text/css">
	.st0{fill:none;stroke:#FFFFFF;stroke-width:2;stroke-miterlimit:10;}
	.st1{fill:#E1E8F6;}
	.st2{fill:#E6E8E8;}
	.st3{opacity:0.75;fill:none;stroke:#FFFFFF;stroke-miterlimit:10;enable-background:new    ;}
	.st4{fill:#EE5050;}
	.st5{fill:#D35050;}
	.st6{fill:url(#g);}
	.st7{fill:#19034D;}
	.st8{fill:#FF735F;}
	.st9{fill:#F8BD7A;}
	.st10{fill:#DB6352;}
	.st11{fill:none;stroke:#19034D;stroke-miterlimit:10;}
	.st12{fill:url(#f);}
	.st13{fill:url(#e);}
	.st14{fill:url(#d);}
	.st15{fill:url(#c);}
	.st16{fill:#262B40;}
	.st17{fill:#FFFFFF;}
	.st18{fill:#0648B3;}
	.st19{clip-path:url(#a);}
	.st20{fill:#228F4E;}
	.st21{fill:#F5BA00;}
	.st22{fill:none;stroke:#0648B3;stroke-width:2;stroke-miterlimit:10;}
	.st23{fill:none;stroke:#E1E8F6;stroke-width:2;stroke-miterlimit:10;}
	.st24{font-family:'OpenSans-Bold';}
	.st25{font-size:60px;}
</style>
	<path class="st0" d="m75.7 170.6h75c12.7 0 23 10.3 23 23v30.9h-98c-12.7 0-23-10.3-23-23v-7.9c0-12.7 10.3-23 23-23z"/>
	<path class="st1" d="m276.1 364.7c27.6-9.7 54.2-26.3 71.7-50.6 21.4-29.6 19.5-63.2 23.9-97.9 1.8-14.1 11.2-22.2 16.8-34.6 11.8-26.3 7.6-65.9-17.2-83.8-15.3-11-30.1-12.2-38.4-31.4-4.6-10.6-7.2-22.2-14.3-31.3-10.2-13.2-27.7-18.4-44.1-21-19.2-3-37.9-2.3-57.1-2.9-20.5-0.6-41.3 0-61.2 5.4-27 7.4-56.7 26.7-61.4 56.2-2 12.6 0.6 26.1-4.2 37.9-7.2 17.8-26.4 23.9-40.8 34.4-15.4 11.3-25.4 29-29.8 47.3-7.5 31.3-2 66 12.6 94.4 15.6 30.4 40.9 56.3 71.5 71.5 24 11.9 57.2 15.4 84.3 17.1 29.6 1.9 59.8-0.9 87.7-10.7z"/>
	<path class="st2" d="m346.6 242.6c-0.2-44.7-12.5-87.6-48.9-116.4-44.9-35.5-107.6-35.1-153.4-1.9-30 21.7-51 54.3-62.8 89.4s-14.8 72.6-13.6 109.6l273 0.9 3.4-37.6c1.3-14.6 2.3-29.3 2.3-44z"/>
	<path class="st3" d="m90.7 165.6h75c12.7 0 23 10.3 23 23v30.9h-98c-12.7 0-23-10.3-23-23v-7.9c0-12.7 10.3-23 23-23z"/>
	<path class="st3" d="m152.5 59.4h104.7c16.8 0 30.5 13.6 30.5 30.4v40.8h-135.2c-16.8 0-30.5-13.6-30.5-30.4v-10.4c0-16.8 13.6-30.4 30.5-30.4z"/>
	<path class="st4" d="m114.4 316.1-1.2-0.9c-1.4-1.1-1.7-3.1-1.9-4.9-1.8-22 1.5-44.1 0.4-66.2-0.2-5.3-4.5-2.7-8-2-0.5 0.1-7.3 1.4-7.3 0.6-0.6 6.3-1.4 13-5.6 17.7-2.9 3.3-7 5.1-10.6 7.6-13.6 9.2-21.5 26.9-23.4 42.9 0-0.4-0.1-0.7-0.1-1.1-0.3-3.2-0.5-6.4-0.6-9.6-0.3-6.7-0.4-13.4-0.3-20.1 0.1-5 0.7-10.5-2.3-14.8-2.6-3.7-5.4-4-9-4.3-1-2-0.8-5.9-0.8-7.7 0-2.9 0.5-6.1 2.6-8.3 3.4-3.6 8.7-1.4 13.1-2.5 9.8-2.5 6.3-15 5.7-22.2-0.4-4.4-7.4-4.5-7 0 0.3 3.6 1 7.4 1 11 0 2.3 0 3.8-2.4 4.6-1.1 0.1-2.3 0.1-3.4 0-5.1 0-9.5 1.1-12.8 5.2-3.6 4.5-4.2 10.3-3.6 15.8 0.4 4.2 0.6 10 5.7 10.9 4.7 0.8 6.2 1.8 6.3 6.8 0.1 3.4-0.2 6.8-0.2 10.2 0 7.7 0.2 15.3 0.8 23 0.3 4.4-0.4 12.3 3.3 15.6 1.6 1.5 3.9 1.8 5.9 0.8 5.8 0.3 19.6-0.5 21.1-0.5h17.8c3 0 8.2 1 11.1-0.5 1.5-0.8 4.3-2.2 5.4-3.5 1.1-0.9 1.1-2.5 0.3-3.6z"/>
	<path class="st5" d="m112 250.5c0-1.8 0-3.6-0.1-5.4 0-0.4 0-0.7-0.1-1-0.1-0.4-0.2-0.7-0.3-1.1-1.3-2.5-5.9-0.3-7.7 0.5-2 1-3.9 2.2-5.6 3.6-1.1 0.7-2.1 1.7-2.7 2.9-0.6 1.3-0.2 3.3-0.1 4.7 0 1 0.3 2.1 0.9 2.9 0.6 0.9 1.8 1.2 2.7 0.7 0.1 1.1 0.4 2.2 0.9 3.2 0.4 0.8 1.2 1.3 2 1.5 0.6 0.2 0.5 0.1 0.7 0.6 0.1 0.5 0.3 0.9 0.5 1.3v0.1c0.1 0.3 0.3 0.6 0.6 0.8 0.1 0.1 0.3 0.2 0.5 0.3 0.3 0.2 0.7 0.3 1.1 0.4 1 0.2 2-0.3 2.6-1.1 0.5-1 0.6-2.1 0.4-3.2 0.8 0 1.5-0.5 1.8-1.3 0.3-0.9 0.4-1.9 0.3-2.8 0-1.1 0-2.1-0.1-3.2 2.1 0.3 1.7-2.9 1.7-4.4z"/>
		<linearGradient id="g" x1="36.352" x2="68.882" y1="-114.6" y2="-99.709" gradientTransform="matrix(1 0 0 -1 42 196)" gradientUnits="userSpaceOnUse">
		<stop stop-color="#EE5050" stop-opacity=".91" offset="0"/>
		<stop stop-color="#311573" stop-opacity="0" offset=".56"/>
	</linearGradient>
	<path class="st6" d="m88.9 286.3c3.6 2.2 5.7 6.3 5.4 10.6-0.4 4.3-3.9 7.8-7 10.4s-7 5.3-9.1 9.1c2.2-0.3 4.4-0.4 6.6-0.5 1.9-0.1 4 0.1 5.1 1.6s0.5 3.8 0.8 5.7c0.2 0.1 0.5 0.1 0.7-0.1 0.2 0.5 0.1 0.5 0.6 0.5 1.8-0.3 3.3-1.4 4.1-3 0.7-1.6 1.1-3.3 1.3-5.1 0.8-6.2 1-12.5 0.7-18.8 0-2-0.4-4-1.3-5.8-1.8-2.7-4.6-4.8-7.9-4.6z"/>
	<path class="st4" d="m80.2 228.2-0.3-0.9c0 0.2 0.8 0.5 1 0.5l1.1 0.6 2.1 1.2s1.4 0.8 2.1 1.3c0.3 0.2 0.5 0.4 0.8 0.3 0.5-0.1 1-0.3 1.5-0.6l5.4-2.1c2.4-0.9 4.8-1.9 7.1-2.9 0.9-0.4 3-0.9 3.3-1.9 0.1-0.4 0.2-0.7 0.1-1.1 0.1-1.9 0.5-5.5 0.5-5.5s1.4 1.2 1.6 1.5c0.5 0.6 1 1.2 1.5 1.9 1 1.3 1.8 2.6 2.6 4 1.7 3 3.1 6.1 4.2 9.3 0.9 2.6 1.4 5.2-0.3 7.5-1.6 2.2-4.2 3.5-6.5 4.8-4.8 2.5-9.9 5.2-15.3 5.7-1.4 0.2-2.7 0-4-0.5-1.2-0.7-2.2-1.7-2.8-3-3.2-6.4-3.9-13.4-5.7-20.1z"/>
	<path class="st7" d="m106.9 242c-1.6-0.5-3.2-0.6-4.8-1.1 0.1-0.2 0.2-0.3 0.3-0.5 0.2-0.4 0.5-0.8 0.7-1.3 0.1-0.2 0.1-0.6-0.2-0.7h-0.1c-0.5-0.2-1.4 0.3-1.9 0.5-0.8 0.3-1.5 0.6-2.2 1-0.2 0.1-0.3 0.4-0.2 0.7 0.1 0.1 0.2 0.2 0.3 0.2l2 0.6c-0.7 1.7-1.3 3.4-1.7 5.2-0.1 0.3 0.1 0.6 0.4 0.6 0.3 0.1 0.6-0.1 0.6-0.4 0.5-1.7 1-3.4 1.7-5 1.6 0.5 3.3 0.6 4.9 1.1 0.5 0.3 0.8-0.7 0.2-0.9z"/>
	<path class="st7" d="m93.1 237.8c-0.2-0.1-0.4-0.1-0.6 0-0.1 0-0.3 0-0.4 0.2-0.1 0.1-0.2 0.3-0.2 0.4s-0.1 0.2-0.1 0.2c0 0.1 0 0.3 0.1 0.4 0.2 0.5 0.7 0.7 1.2 0.5 0.2-0.1 0.4-0.2 0.5-0.4 0.3-0.4 0.1-1-0.3-1.3 0 0.1-0.1 0-0.2 0z"/>
	<path class="st7" d="m108.1 231.8c-0.2-0.1-0.4-0.1-0.6 0-0.1 0-0.3 0-0.4 0.2-0.1 0.1-0.2 0.3-0.2 0.4s-0.1 0.2-0.1 0.2c0 0.1 0 0.3 0.1 0.4 0.2 0.5 0.7 0.7 1.2 0.5 0.2-0.1 0.4-0.2 0.5-0.4 0.3-0.4 0.1-1-0.3-1.3 0 0.1-0.1 0-0.2 0z"/>
	<path class="st8" d="m134 296.7c-1.9 6.5-3.5 14.1 0.3 19.7 4.6 6.8 15.3 6.7 22 2s10.3-12.6 13.4-20.2c5.2-12.8 9.8-25.9 11.6-39.6 1.1-8 0.1-17.9-7.1-21.4-11.2-5.4-20.7 3.2-24.3 12.6-5.9 15.4-11.2 31-15.9 46.9z"/>
	<path class="st9" d="m167.9 214.2c-2.9 3.1-5.4 6.4-7.7 9.9-3.1 4.9-5.3 10.1-7.7 15.4-0.9 1.8-8.1 17.8-6.5 18.9 9.1 6.5 18.1 13.7 28.6 17.7 0.4 0.1-1.6 7.8-1.8 8.5-0.7 2.8-1.4 5.7-1.9 8.5-1.1 5.7-2.1 11.5-3.1 17.2-0.6 3.2-1.1 6.4-1.6 9.6-0.2 1.4 45.2 4.5 49.3 4.5 12 0.2 30.9 3.5 38.2-8.7 1.6-3 2.7-6.2 3.4-9.5 4.5-19.3 6.5-39.2 6-59 0-4.7-0.5-9.3-1.5-13.9-1.6-6.6-5.1-12.5-8.7-18.1-3.3-5.2-8.5-8-14-10.7-16.5-7.9-36.5-10.5-53.2-3.1-6.8 3.1-12.8 7.5-17.8 12.8z"/>
	<path class="st8" d="m243.5 261c-0.5 1-0.9 2.1-1.4 3.1-1.8 4-6.1 11-6.1 15.4-2.1 6.4-3 13.3-1.8 19.9 0.5 2.6 1.3 5.2 2.2 7.8 1 3.3 2.4 6.4 4.3 9.2 1.8 2.4 6.2 6.3 9.6 5s6.2-7.8 7.5-11c8-18.8 11.2-39.5 13.1-59.8 0.7-3.6-0.5-7.3-3.1-9.7-1.8-2.2-3.8-4.5-6.5-5-2.8-0.5-5.4 0.9-7.2 2.9-1.7 2.1-3.1 4.5-4 7l-6.6 15.2z"/>
	<path class="st9" d="m258 258.9c-1.5-0.4-23.1-5.7-23.1-3 0.2-11.7 0.8-23.4 1.9-35.1 0.2-3.7 0.9-7.4 2.2-10.9 1.4-3.4 4-6.6 7.4-7.9 2.6-0.9 5.5-1 8.1-0.3 8.6 2 15.5 8.6 17.7 17.2 0.8 3.6 1.1 7.4 0.9 11.1-0.1 11-0.9 22-1.6 33-4.6-0.1-9.1-2.9-13.5-4.1z"/>
	<path class="st10" d="m268.9 199.5c0.3 1 0.5 2 0.6 3.1 0.5 7-4.2 12.9-8.8 17.6-1.8 1.9-4.4 3.1-6 5.1-1.9 2.2-1.8 5.8-5 6.8-2.1 0.5-4.3-0.8-4.8-2.9-0.2-0.9-0.1-1.8 0.3-2.7 0.6-2.1 1.4-4.1 2.4-5.9 0.9-1.4 2.7-2.2 4.1-3 2.8-1.7 4.8-4.6 5.3-7.9 0.9-5.9 0-12.6 2.1-18.2 0.3-1 0.9-1.9 1.6-2.6 0.8-0.7 1.9-1 2.9-0.7 1.4 0.5 2 2.2 2.5 3.6 0.8 2.6 2.1 5.1 2.8 7.7z"/>
	<path class="st10" d="m261.2 273.8c0.7 12.6 0.5 25.5-2.9 37.8-1 3.7-2.7 8.9-6.3 11-4 2.3-10.3 0.4-14-1.7-2.5-1.3-4.7-3.2-6.3-5.5-2.5-3.7-2.6-8.5-2.3-13 0.8-12 3.7-23.1 6.1-34.8 2.5-12.7 5.5-25.3 8.9-37.9 1.4-5.3 3.3-9.3 7.8-12.7 3.2-2.4 8.5-5.6 8.8 0.7 0.8 18.6-0.8 37.3 0.2 56.1z"/>
	<path class="st8" d="m210.8 209.8c-0.4 0.7-0.7 1.4-0.9 2.1-0.2 1-0.2 2 0 2.9 0.9 7.3 2.4 14.5 10.3 16.8 5.5 1.6 11.3 1 16.4-1.7 1.6-0.8 3-1.8 4.2-3.1 1.3-1.2 2-2.9 2.1-4.7 5.3 1.2 10.7-4.2 13.4-8 6.3-8.8 8.4-19.9 7.4-30.5-0.2-2.6-0.6-5.4-2.2-7.4-1.2-1.4-2.6-2.6-4.2-3.5-7.2-4.6-14.9-4.9-22.7-1.2-7.1 3.3-12.1 10.4-15.5 17.2-1.4 2.9-1.6 6.6-2.8 9.7-1.3 3.6-3 7.1-5 10.4l-0.5 1z"/>
	<path class="st7" d="m220.7 172.8c1.5-3.6 3.9-6.7 7-9 5.4-3.8 13.2-3.1 19.3-1.7 3.5 0.8 7 2.3 10.6 2.3 3.3 0 6.7-3.3 9.9-2.2 1.4 0.5 2.5 1.7 2.8 3.2 0.5 2.4-1 4.7-2.1 6.9-0.8 1.8-1.8 3.5-2.8 5.1-1.6 2.1-3.9 3.6-6.5 4-0.9 0.1-1.7 0-2.6-0.1-5.2-0.5-9.5-2-13.5 2.1-2.7 2.8-4 6.6-6 9.9-0.4 0.8-1.1 1.5-1.8 2.1-1.1 0.5-2.3 0.8-3.5 0.9-5.1 1.2-8.5 9.8-13.9 7.9-4.6-1.6-3.6-5.8-1.8-9.1 2.3-4.2 1.9-9.2 2.5-13.9 0.4-3 1.2-5.8 2.4-8.4z"/>
	<path class="st8" d="m222 192.6c-1.1 1.6-1.9 3.5-2.2 5.4-0.4 1.6-0.4 3.4 0 5 0.5 1.7 1.8 3 3.5 3.4 1.3 0.2 2.7-0.3 3.7-1.2 2.4-2.1 5.2-8.5 4.5-11.8-1-4.6-7.2-3.8-9.5-0.8z"/>
	<path class="st11" d="m226.7 194.4c-1.3 0.5-2.4 1.6-3 2.9-0.5 1.3-0.9 2.7-1.1 4.1"/>
	<path class="st7" d="m260.6 195.3c0.1 0.6-0.2 1.3-0.9 1.4-0.6 0.1-1.3-0.3-1.4-0.9s0.2-1.2 0.9-1.4c0.7-0.1 1.3 0.3 1.4 0.9z"/>
	<path class="st7" d="m247.5 196.4c0.1 0.6-0.3 1.2-1 1.3-0.6 0.1-1.2-0.3-1.4-1-0.1-0.6 0.3-1.2 1-1.4 0.7 0 1.3 0.4 1.4 1.1v0z"/>
		<linearGradient id="f" x1="191.61" x2="205.82" y1="-130.14" y2="-99.172" gradientTransform="matrix(1 0 0 -1 42 196)" gradientUnits="userSpaceOnUse">
		<stop stop-color="#201B59" stop-opacity=".91" offset="0"/>
		<stop stop-color="#fc0" stop-opacity="0" offset=".56"/>
	</linearGradient>
	<path class="st12" d="m230.5 292.5c-0.5 3.2-0.9 6.5-1.1 9.8-0.3 4.5-0.2 9.2 2.3 13 1.7 2.3 3.8 4.2 6.3 5.5 3.7 2.1 10 4 14 1.7 3.5-2 5.2-7.3 6.3-11 1.7-6.2 2.7-12.6 3-19h-30.8z"/>
		<linearGradient id="e" x1="131.55" x2="148.47" y1="-74.296" y2="-90.566" gradientTransform="matrix(1 0 0 -1 42 196)" gradientUnits="userSpaceOnUse">
		<stop stop-color="#201B59" stop-opacity=".91" offset="0"/>
		<stop stop-color="#fc0" stop-opacity="0" offset=".56"/>
	</linearGradient>
	<path class="st13" d="m194.6 273.1-5.5-15.6c0.1 0.4-1 2.1-1.2 2.5l-1.2 2.7c-0.8 1.9-1.7 3.7-2.5 5.5-1.5 3.5-3.3 7-5.2 10.4-1.6-0.5-3.1-1.3-4.4-2.4-0.5 3.2-1.5 6.1-2.2 9.3-0.3 1.6-0.6 3.3-0.9 4.9-0.1 0.8-0.3 1.6-0.5 2.5-0.1 0.3-0.2 2.1-0.4 2.3 8.5-5 16.3-11.2 23.1-18.3 0.6-0.5 1-1.2 1.2-2 0.1-0.6 0-1.2-0.3-1.8z"/>
	<path class="st7" d="m261.5 189c-1.6-0.2-3.2 0.2-4.6 1.1-0.7 0.4-0.9 1.2-0.6 1.9 0.4 0.7 1.2 0.9 1.9 0.6 0.9-0.6 2-0.9 3.1-0.7 0.8 0 1.4-0.7 1.4-1.5 0-0.7-0.5-1.3-1.2-1.4z"/>
	<path class="st7" d="m250.1 191.2c-2-0.9-4.1-0.5-6.1 0-1.5 0.4-1.2 2.9 0.4 2.5s3.2-0.9 4.7-0.2 2.5-1.7 1-2.3z"/>
		<linearGradient id="d" x1="40.141" x2="28.451" y1="-463.81" y2="-477.51" gradientTransform="matrix(.9745 -.2244 -.2244 -.9745 97.104 -227.33)" gradientUnits="userSpaceOnUse">
		<stop stop-color="#201B59" stop-opacity=".91" offset=".27"/>
		<stop stop-color="#FF735F" stop-opacity="0" offset=".56"/>
	</linearGradient>
	<path class="st14" d="m232.5 217.9-0.3 7.8c0 1.4-0.1 2.7-0.1 4.1 0 0.2-0.1 0.7-0.1 1.2 1.6-0.3 3.2-0.8 4.7-1.4 2.2-0.8 4.1-2.4 5.3-4.5 0.4-0.8 0.7-1.7 0.9-2.6-3.6-0.7-7.7-2.1-10.4-4.6z"/>
	<path class="st8" d="m205 323.8c13.5 1.6 28.5 3.4 41.5-0.5-2-3.1-4.3-6-6.9-8.6s-6-4.3-9.7-4.9c-1.9-0.2-3.9-0.1-5.8 0.2-3.4 0.4-7.7 2.2-11.1 1.9-2.8-0.2-6.5-2.6-9.2-3.7-18.1-7.2-39.6-16.9-59.5-11.7-10 2.6-16 11-9.1 20.4 3.9 5.3 10.1 4.3 16.2 4.4 16.4 0.3 32.9 0.1 49.2 2l4.4 0.5z"/>
	<path class="st7" d="m245.9 211.8-1-0.2c0.4-1.8 1.2-3.5 2.3-5 1.1-1.6 2.9-2.6 4.8-2.9 0.6-0.1 1.2 0 1.7 0.1 1.1 0.4 2 1.3 2.5 2.4l-0.9 0.4c-0.4-0.9-1-1.5-1.9-1.9-0.4-0.1-0.9-0.2-1.3-0.1-1.6 0.2-3.1 1.1-4.1 2.5-1.1 1.4-1.8 3-2.1 4.7z"/>
		<linearGradient id="c" x1="126.41" x2="117.71" y1="-107.53" y2="-89.868" gradientTransform="matrix(1 0 0 -1 42 196)" gradientUnits="userSpaceOnUse">
		<stop stop-color="#201B59" stop-opacity=".91" offset=".27"/>
		<stop stop-color="#FF735F" stop-opacity="0" offset=".56"/>
	</linearGradient>
	<path class="st15" d="m171 290.5c-0.1-0.2-0.3-0.5-0.4-0.7-0.9-1.6-1.8-3.1-2.7-4.7-1.2 1.3-2.5 2.4-3.9 3.5-1.9 1.3-3.6 2.8-5.2 4.5-1 1-1.9 2.1-2.8 3.1 0.2 0.6 0.5 1.1 0.7 1.7 0.1 0.3 0.2 0.6 0.4 0.9 0.6-0.2 1.3-0.4 1.9-0.6 3.2-0.9 7.5-2.2 11-1.7 0.2-2 0.9-3.8 1.1-5.8-0.1 0-0.1-0.1-0.1-0.2z"/>
	<path class="st10" d="m249.9 215.8c-0.7 0-1.3 0.4-1.7 0.9-0.1 0.3-0.1 0.6 0.1 0.8 0 0.2 0.2 0.4 0.4 0.4 0.7 0.1 1.4-0.1 1.8-0.7 0.3-0.3 0.3-0.8 0-1.1-0.2-0.2-0.4-0.3-0.6-0.3z"/>
	<path class="st10" d="m250.9 188.2c-0.7-0.3-1.5-0.5-2.2-0.6-0.6-0.1-0.6 0.9 0 1 0.7 0.1 1.4 0.3 2 0.5 0.5 0.3 0.8-0.6 0.2-0.9z"/>
	<path class="st10" d="m257.1 186.8-1.6 0.5c-0.6 0.2-0.4 1.1 0.3 1l1.6-0.5c0.6-0.3 0.3-1.2-0.3-1z"/>
	<path class="st16" d="m142.5 47.4h104.7c16.8 0 30.5 13.6 30.5 30.4v40.8h-135.2c-16.8 0-30.5-13.6-30.5-30.4v-10.4c0-16.8 13.6-30.4 30.5-30.4z"/>
	<path class="st17" d="m102.7 135.6h75c12.7 0 23 10.3 23 23v30.9h-98c-12.7 0-23-10.3-23-23v-7.9c0-12.7 10.3-23 23-23z"/>
	<path class="st18" d="m117.8 168.5c-1.4 0.1-2.8-0.4-3.9-1.4-1-1-1.5-2.5-1.4-3.9-0.1-1.4 0.4-2.9 1.3-4 0.9-1 2.2-1.5 3.6-1.4 1.3-0.1 2.5 0.4 3.4 1.2 0.9 0.9 1.3 2.2 1.2 3.4v1.4h-6.6c0 0.7 0.2 1.4 0.7 1.9s1.2 0.7 1.9 0.7c0.6 0 1.2-0.1 1.8-0.2s1.2-0.3 1.7-0.6v2.2c-0.5 0.3-1 0.4-1.6 0.6-0.7 0-1.4 0.1-2.1 0.1zm-0.4-8.7c-0.5 0-1 0.2-1.4 0.6-0.4 0.5-0.6 1-0.6 1.6h4c0-0.6-0.2-1.2-0.5-1.6-0.4-0.5-0.9-0.7-1.5-0.6z"/>
	<path class="st18" d="m131.9 157.8c0.3 0 0.6 0 0.9 0.1l-0.2 2.6c-0.3-0.1-0.6-0.1-0.8-0.1-0.8 0-1.5 0.2-2.1 0.7-0.5 0.5-0.8 1.2-0.7 1.9v5.2h-2.8v-10.2h2.1l0.4 1.7h0.1c0.3-0.6 0.8-1 1.3-1.4 0.6-0.3 1.2-0.5 1.8-0.5z"/>
	<path class="st18" d="m142.4 157.8c0.3 0 0.7 0 1 0.1l-0.2 2.6c-0.3-0.1-0.6-0.1-0.8-0.1-0.8 0-1.5 0.2-2.1 0.7-0.5 0.5-0.8 1.2-0.8 1.9v5.2h-2.8v-10.2h2.1l0.4 1.7h0.1c0.3-0.6 0.8-1 1.3-1.4 0.6-0.3 1.2-0.5 1.8-0.5z"/>
	<path class="st18" d="m156.5 163.1c0.1 1.4-0.4 2.8-1.3 3.9-1 1-2.3 1.5-3.7 1.4-0.9 0-1.8-0.2-2.6-0.6s-1.4-1.1-1.8-1.9c-0.4-0.9-0.6-1.9-0.6-2.8-0.1-1.4 0.4-2.8 1.3-3.9 1-1 2.3-1.5 3.7-1.4 0.9 0 1.8 0.2 2.6 0.6s1.4 1.1 1.7 1.9c0.5 0.9 0.7 1.8 0.7 2.8zm-7.1 0c-0.1 0.8 0.1 1.6 0.5 2.3 0.4 0.5 1 0.8 1.6 0.8 0.6 0.1 1.3-0.2 1.6-0.8 0.4-0.7 0.5-1.5 0.5-2.3 0.1-0.8-0.1-1.6-0.5-2.3-0.4-0.5-1-0.8-1.6-0.8-0.6-0.1-1.3 0.2-1.6 0.8-0.4 0.7-0.6 1.5-0.5 2.3z"/>
	<path class="st18" d="m166.5 157.8c0.3 0 0.6 0 0.9 0.1l-0.2 2.6c-0.3-0.1-0.6-0.1-0.8-0.1-0.8 0-1.5 0.2-2.1 0.7-0.5 0.5-0.8 1.2-0.8 1.9v5.2h-2.8v-10.2h2.1l0.4 1.7h0.1c0.3-0.6 0.8-1 1.3-1.4 0.6-0.3 1.3-0.5 1.9-0.5z"/>
	<path class="st18" d="m144.8 310.9c-1.3 0-2.6-0.1-3.8-0.4l0.4-2.1c4.4 0.9 11.5 0 13.5-4.2 0.6-1.3 0.6-2.8 0-4.1s-1.8-2.2-3.1-2.6c-2.7-0.8-6.2 0.1-8.5 1.4l-1.1-1.9c2.5-1.4 6.7-2.7 10.2-1.6 1.9 0.6 3.5 1.9 4.4 3.7 0.9 1.9 0.9 4.1 0 6-2 4.3-7.4 5.8-12 5.8z"/>
	<path class="st16" d="m113.5 290.2h34.8v14.2c0 7.6-6.1 13.7-13.7 13.7h-7.4c-7.6 0-13.7-6.1-13.7-13.7v-14.2z"/>
	<path class="st17" d="m158 320.2h-53.6c-0.9 0-1.6-0.7-1.6-1.6s0.7-1.6 1.6-1.6h53.6c0.9 0 1.6 0.7 1.6 1.6s-0.7 1.6-1.6 1.6z"/>
				<defs>
					<path id="b" d="m360.1 284.3c0.3-1.9 0.9-3.6 2.5-4.5 2.2-1.3 5-0.2 7.6-0.7 7.1-1.3 7-11.2 6.9-16.6-0.1-3.5-0.2-6.9-0.5-10.4 0-0.9-0.2-1.8-0.6-2.6-1-1.4-2.8-1.9-4.4-1.4-3.1 0.9-4.8 4.2-5.4 7.4s-0.3 6.5-1.1 9.6c-0.1 0.6-0.4 1.2-0.7 1.7-0.4 0.6-0.9 1-1.5 1.3-0.9 0.5-2 0.5-2.9 0-1-0.6-0.8-1.4-0.8-2.4 0-1.2-0.1-2.3-0.3-3.5-0.3-2.6-0.6-5.2-0.8-7.8-0.5-5.1-0.9-10.2-1.4-15.4-0.1-2.4-0.7-4.7-1.7-6.9-5.1-9.1-12.8-1.1-13.5 5.5-1.6 15.1 6.2 29.3 5.6 44.3 0 0.6-0.1 1.3-0.4 1.9-1.2 2.4-5 2-6.7 0.6-2.7-2.1-1.8-6.8-1.8-9.5 0-2.3-0.7-4.8-2.9-5.9-2.5-1.2-5.7 0.2-7.1 2.5-1.8 2.9-1.6 7.8-1.4 11 0.1 2.3 0.8 4.6 2.1 6.6 1.4 2.1 3.7 3.4 6.1 3.6 1.5 0.1 3.1-0.2 4.2 0.7 1.4 1.1 0.9 3 0.9 4.6 0.1 3.2 2.9 6 6.1 7.4s6.9 1.6 10.4 1.8c3-4.8 3.2-10.4 3.4-15.8-0.1-2.4-0.1-4.7 0.1-7.1z"/>
				</defs>
				<clipPath id="a">
					<use xlink:href="#b"/>
				</clipPath>
				<g class="st19">
					<path class="st20" d="m360.1 284.3c0.3-1.9 0.9-3.6 2.5-4.5 2.2-1.3 5-0.2 7.6-0.7 7.1-1.3 7-11.2 6.9-16.6-0.1-3.5-0.2-6.9-0.5-10.4 0-0.9-0.2-1.8-0.6-2.6-1-1.4-2.8-1.9-4.4-1.4-3.1 0.9-4.8 4.2-5.4 7.4s-0.3 6.5-1.1 9.6c-0.1 0.6-0.4 1.2-0.7 1.7-0.4 0.6-0.9 1-1.5 1.3-0.9 0.5-2 0.5-2.9 0-1-0.6-0.8-1.4-0.8-2.4 0-1.2-0.1-2.3-0.3-3.5-0.3-2.6-0.6-5.2-0.8-7.8-0.5-5.1-0.9-10.2-1.4-15.4-0.1-2.4-0.7-4.7-1.7-6.9-5.1-9.1-12.8-1.1-13.5 5.5-1.6 15.1 6.2 29.3 5.6 44.3 0 0.6-0.1 1.3-0.4 1.9-1.2 2.4-5 2-6.7 0.6-2.7-2.1-1.8-6.8-1.8-9.5 0-2.3-0.7-4.8-2.9-5.9-2.5-1.2-5.7 0.2-7.1 2.5-1.8 2.9-1.6 7.8-1.4 11 0.1 2.3 0.8 4.6 2.1 6.6 1.4 2.1 3.7 3.4 6.1 3.6 1.5 0.1 3.1-0.2 4.2 0.7 1.4 1.1 0.9 3 0.9 4.6 0.1 3.2 2.9 6 6.1 7.4s6.9 1.6 10.4 1.8c3-4.8 3.2-10.4 3.4-15.8-0.1-2.4-0.1-4.7 0.1-7.1z"/>
					<path class="st11" d="m350.6 228.5c3.6 25 6.7 50.5 2.3 75.4"/>
					<path class="st11" d="m347.1 228.4c-1 4.7-2 9.4-2 14.1 0 9.1 3.9 17.7 5.4 26.7 1.7 10 0.4 20.2-0.8 30.3"/>
					<path class="st11" d="m354.9 272.6c4.4-0.6 9.6-1.2 12.3-4.7 0.4-0.5 0.7-1 0.9-1.6 0.7-2.4 0.4-5 0.4-7.5v-9.5"/>
					<path class="st11" d="m351 289.2c-3.9 0.6-8.2 1.2-11.6-0.7-2-1.2-3.5-3.1-4.2-5.3-0.7-2.1-1-4.4-0.9-6.6 0-2.4 0.2-4.8 0.6-7.2"/>
					<path class="st11" d="m355 276.6c5-0.7 9.8-2 14.5-3.8 1-0.3 1.9-0.8 2.7-1.5 0.7-0.8 1.2-1.8 1.4-2.8 0.7-2.3 1-17.8 0.2-21.5"/>
				</g>
	<polygon class="st21" points="336.4 298.8 365.8 298.2 362.8 320 340.4 320"/>
	<path class="st17" d="m205.2 315.6h123.8c1.4 0 2.5 1.1 2.5 2.5v0.9c0 1.4-1.1 2.5-2.5 2.5h-123.8c-1.4 0-2.5-1.1-2.5-2.5v-0.9c0-1.4 1.1-2.5 2.5-2.5z"/>
	<path class="st17" d="m331.9 321.4h-110l9.6-63.2c0.3-2.2 2.2-3.8 4.4-3.8h101.3c2.4 0 4.3 2 4.2 4.3 0 0.2 0 0.4-0.1 0.7l-9.4 62z"/>
	<circle class="st22" cx="286.9" cy="283.4" r="5.3"/>
	<path class="st0" d="m292.3 249.5c-0.7-2.9-1-5.9-1-8.8s0.5-5 2.4-7.2c1.4-1.7 3-3.2 4.7-4.6 4.4-3.7 6-9.8 4-15.1"/>
	<path class="st0" d="m301.6 241c-0.6-2.5 0.8-5 2.5-6.9s3.9-3.4 5.4-5.4c3.2-4.4 3.1-8.5 2.5-16.7-0.4-5.8-0.3-12.3 3.8-16.3"/>
	<path class="st16" d="m48.9 319.3h319.4c1.7 0 3 1.3 3 3v1c0 1.7-1.3 3-3 3h-319.4c-1.7 0-3-1.3-3-3v-1c0-1.7 1.3-3 3-3z"/>
	<path class="st23" d="m401 137.7c2.5 15.7 3.5 32.5-3.7 46.7-4 7.9-10.3 14.4-13.9 22.6-3.8 8.7-5.2 17.7-6.1 27.1"/>
	<path class="st23" d="m77.3 111.5c-10 12.1-24.8 18.9-36.8 29-19.6 16.7-30.7 41.2-30.4 66.9"/>
	<path class="st23" d="m296.3 11.3c16.5 5.3 30 17.3 37.2 33"/>
	<path class="st23" d="m68.7 345.8c22.3 19.4 50.3 31 79.8 33"/>
	<path class="st23" d="m288.1 351.6c5.4-2.4 10.6-5.1 15.7-8"/>
	<path class="st23" d="m215.1 366.3c21.3-0.9 39.7-2 62.7-11"/>
	<text class="st17 st24 st25" transform="translate(146.54 104.29)">500</text>
</svg>
